<?xml version="1.0" standalone="no"?>
<!DOCTYPE svg PUBLIC "-//W3C//DTD SVG 1.1//EN" "http://www.w3.org/Graphics/SVG/1.1/DTD/svg11.dtd" >
<svg xmlns="http://www.w3.org/2000/svg" xmlns:xlink="http://www.w3.org/1999/xlink" version="1.1">
<metadata>
Created by FontForge 20150318 at Tue Sep 29 05:40:46 2015
 By uniteet7
Copyright 2008 Dalton Maag Ltd. This typeface is for exclusive use by Toyota Motor Corporation only. The typeface may only be used in projects relating to Toyota Motor Corporation. All rights reserved.
</metadata>
<defs>
<font id="toyotatextboldwebfont" horiz-adv-x="1216" >
  <font-face 
    font-family="toyotatextboldwebfont"
    font-weight="700"
    font-stretch="normal"
    units-per-em="2048"
    panose-1="2 11 8 3 4 2 2 2 2 4"
    ascent="1638"
    descent="-410"
    x-height="1047"
    cap-height="1477"
    bbox="-242 -500 2048 2097"
    underline-thickness="249"
    underline-position="124"
    unicode-range="U+000D-FB04"
  />
<missing-glyph horiz-adv-x="748" 
d="M68 0v1365h544v-1365h-544zM136 68h408v1229h-408v-1229z" />
    <glyph glyph-name="uniFB01" unicode="fi" horiz-adv-x="1273" 
d="M23 825v222h141v81q0 176 126 277.5t357 101.5q111 0 208 -24.5t206 -87.5l-96 -197q-68 39 -135.5 61.5t-149.5 22.5q-111 0 -157 -42t-46 -144v-49h664v-1047h-314v825h-350v-825h-313v825h-141z" />
    <glyph glyph-name="uniFB02" unicode="fl" horiz-adv-x="1273" 
d="M23 825v222h141v81q0 176 126 277.5t357 101.5q92 0 225.5 -23.5t268.5 -88.5v-1395h-314v1260q-29 10 -64.5 16t-82.5 6q-111 0 -157 -42t-46 -144v-49h268v-222h-268v-825h-313v825h-141z" />
    <glyph glyph-name="uniFB03" unicode="ffi" horiz-adv-x="1937" 
d="M23 825v222h141v81q0 176 96 277.5t305 101.5q82 0 139.5 -13t104.5 -36l-96 -196q-53 20 -115 20q-78 0 -99.5 -49t-21.5 -137v-49h350v81q0 176 126 277.5t358 101.5q111 0 208 -24.5t205 -87.5l-96 -197q-68 39 -135.5 61.5t-149.5 22.5q-111 0 -156.5 -42t-45.5 -144
v-49h663v-1047h-313v825h-350v-825h-314v825h-350v-825h-313v825h-141z" />
    <glyph glyph-name="uniFB04" unicode="ffl" horiz-adv-x="1937" 
d="M23 825v222h141v81q0 176 96 277.5t305 101.5q82 0 139.5 -13t104.5 -36l-96 -196q-53 20 -115 20q-78 0 -99.5 -49t-21.5 -137v-49h350v81q0 176 126 277.5t358 101.5q92 0 225 -23.5t268 -88.5v-1395h-313v1260q-29 10 -64.5 16t-83.5 6q-111 0 -156.5 -42t-45.5 -144
v-49h268v-222h-268v-825h-314v825h-350v-825h-313v825h-141z" />
    <glyph glyph-name=".notdef" horiz-adv-x="748" 
d="M68 0v1365h544v-1365h-544zM136 68h408v1229h-408v-1229z" />
    <glyph glyph-name="glyph1" horiz-adv-x="2048" 
 />
    <glyph glyph-name="glyph1" horiz-adv-x="2048" 
 />
    <glyph glyph-name="uni000D" unicode="&#xd;" horiz-adv-x="0" 
 />
    <glyph glyph-name="space" unicode=" " horiz-adv-x="419" 
 />
    <glyph glyph-name="exclam" unicode="!" horiz-adv-x="645" 
d="M135 156q0 84 47 140t140 56q94 0 141 -56t47 -140t-47 -138.5t-141 -54.5q-92 0 -139.5 54.5t-47.5 138.5zM143 1477h363l-51 -1000h-260z" />
    <glyph glyph-name="quotedbl" unicode="&#x22;" horiz-adv-x="880" 
d="M104 1477h263l-17 -592h-229zM520 1477h263l-17 -592h-229z" />
    <glyph glyph-name="numbersign" unicode="#" horiz-adv-x="1480" 
d="M70 387v219h256l55 277h-205v219h250l53 270h269l-54 -270h244l53 270h269l-54 -270h207v-219h-252l-55 -277h201v-219h-244l-62 -307h-268l62 307h-244l-62 -307h-268l62 307h-213zM594 606h244l55 277h-244z" />
    <glyph glyph-name="dollar" unicode="$" 
d="M94 129l107 213q98 -61 187 -87t175 -26q106 0 165.5 42t59.5 141q0 39 -12 68.5t-41.5 52t-78 42t-121.5 35.5q-90 23 -165 52.5t-128.5 79t-82 121t-28.5 175.5q0 168 96.5 278.5t264.5 147.5v209h249v-203q88 -10 169 -39.5t155 -72.5l-109 -207q-18 12 -52 28.5
t-75 30t-87 23.5t-89 10q-213 0 -213 -166q0 -41 13.5 -70.5t45 -52t85 -43t135.5 -43.5q70 -18 138.5 -46.5t120.5 -76t85 -117t33 -171.5q0 -188 -96.5 -300t-262.5 -149v-217h-250v207q-117 10 -219 45t-174 86z" />
    <glyph glyph-name="percent" unicode="%" horiz-adv-x="1939" 
d="M98 1059q0 197 92.5 306.5t264.5 109.5q176 0 265 -109t89 -307q0 -193 -90 -300.5t-264 -107.5t-265.5 106.5t-91.5 301.5zM332 1065q0 -72 9 -117t25.5 -69.5t39 -33.5t49.5 -9q29 0 51 9t37.5 33.5t23.5 69.5t8 117q0 68 -8 112t-23.5 69.5t-38 34.5t-50.5 9
q-25 0 -47.5 -8t-39 -32.5t-26.5 -68.5t-10 -116zM354 0l944 1458h275l-940 -1458h-279zM1130 381q0 197 92.5 306.5t264.5 109.5q176 0 265 -108.5t89 -307.5q0 -193 -90 -300.5t-264 -107.5t-265.5 106.5t-91.5 301.5zM1364 387q0 -72 9 -117t25.5 -69.5t39 -33.5t49.5 -9
q29 0 51.5 9t37.5 33.5t23.5 69.5t8.5 117q0 68 -8.5 112t-23.5 69.5t-37.5 34.5t-51.5 9q-25 0 -47.5 -8t-39 -32.5t-26.5 -68.5t-10 -116z" />
    <glyph glyph-name="ampersand" unicode="&#x26;" horiz-adv-x="1517" 
d="M102 369q0 90 26 160.5t70 130t103 111.5t129 106q-41 63 -65.5 124.5t-24.5 118.5q0 80 23.5 149.5t77 122t139.5 82t208 29.5q117 0 210.5 -38t160.5 -79l-125 -200q-18 12 -44.5 27.5t-57.5 28.5t-62.5 22.5t-62.5 9.5q-53 0 -86 -11.5t-51.5 -31t-25.5 -46t-7 -55.5
q0 -35 19.5 -72.5t48 -74.5t58.5 -70.5t52 -60.5l227 -281l156 242l223 -63l-233 -361l268 -328l-287 -98l-163 199q-35 -37 -78 -73t-95.5 -63.5t-114 -45t-134.5 -17.5q-113 0 -202 21.5t-151.5 70.5t-95.5 126t-33 188zM391 424q0 -121 58.5 -176t160.5 -55
q86 0 145.5 39.5t110.5 99.5l-303 368q-53 -43 -87 -78.5t-52 -69.5t-25.5 -65.5t-7.5 -62.5z" />
    <glyph glyph-name="quotesingle" unicode="'" horiz-adv-x="471" 
d="M104 1477h263l-17 -592h-229z" />
    <glyph glyph-name="parenleft" unicode="(" horiz-adv-x="790" 
d="M117 608q0 162 35.5 301.5t97 258t145.5 217t180 180.5l191 -174q-102 -96 -166.5 -194.5t-100.5 -198t-49.5 -198t-13.5 -192.5t12.5 -191.5t48 -194.5t100.5 -194.5t167 -191.5l-197 -184q-96 82 -178 180t-142.5 217t-95 257t-34.5 302z" />
    <glyph glyph-name="parenright" unicode=")" horiz-adv-x="790" 
d="M25 1391l190 174q96 -82 180 -180.5t145.5 -217t97.5 -258t36 -301.5q0 -164 -35 -302t-95.5 -257t-142.5 -217t-178 -180l-196 184q102 94 166.5 191.5t100.5 194.5t48 194.5t12 191.5t-13 192.5t-49 198t-100.5 197.5t-166.5 195z" />
    <glyph glyph-name="asterisk" unicode="*" horiz-adv-x="1032" 
d="M74 1065l82 252l258 -127l-35 287h266l-35 -289l262 129l84 -252l-282 -64l192 -208l-211 -156l-141 256l-145 -256l-211 156l196 208z" />
    <glyph glyph-name="plus" unicode="+" 
d="M137 573v246h348v355h246v-355h348v-246h-348v-354h-246v354h-348z" />
    <glyph glyph-name="comma" unicode="," horiz-adv-x="530" 
d="M72 -260l94 571l299 -55l-195 -571z" />
    <glyph glyph-name="hyphen" unicode="-" horiz-adv-x="921" 
d="M133 516v254h655v-254h-655z" />
    <glyph glyph-name="period" unicode="." horiz-adv-x="563" 
d="M96 156q0 84 46 140t139 56q94 0 140 -56t46 -140t-46 -138.5t-140 -54.5q-92 0 -138.5 54.5t-46.5 138.5z" />
    <glyph glyph-name="slash" unicode="/" horiz-adv-x="968" 
d="M10 -160l682 1725h287l-682 -1725h-287z" />
    <glyph glyph-name="zero" unicode="0" 
d="M70 719q0 178 31.5 318.5t98 237.5t169 149.5t243.5 52.5q143 0 244.5 -51.5t166 -148.5t94.5 -237.5t30 -320.5q0 -174 -31 -312.5t-96.5 -234.5t-166 -147.5t-241.5 -51.5q-143 0 -245.5 50.5t-169 145.5t-97 234.5t-30.5 315.5zM414 729q0 -168 14 -272.5t40 -161.5
t61.5 -76.5t80.5 -19.5q47 0 83 19.5t60.5 76.5t37 161.5t12.5 272.5q0 160 -12.5 261.5t-36 159.5t-59.5 79.5t-85 21.5q-41 0 -76.5 -18.5t-62.5 -73.5t-42 -158.5t-15 -271.5z" />
    <glyph glyph-name="one" unicode="1" 
d="M98 1143l326 248q63 49 113.5 67.5t117.5 18.5q172 0 172 -168v-1069h308v-240h-945v240h326v862q0 20 -4 24t-14 4t-31 -14l-227 -162z" />
    <glyph glyph-name="two" unicode="2" 
d="M98 1303q100 72 231.5 123t291.5 51q137 0 228 -35t143 -92.5t73.5 -131t21.5 -151.5q0 -143 -76.5 -260t-207.5 -238l-275 -258q-18 -16 -25 -25.5t-7 -19.5q0 -8 4 -14t20 -6h590v-246h-805q-94 0 -148.5 37t-54.5 139q0 63 32 117.5t104 120.5l372 354q51 49 84 89
t51.5 77t25.5 70.5t7 68.5q0 82 -49 124t-135 42q-72 0 -172 -35t-191 -98z" />
    <glyph glyph-name="three" unicode="3" 
d="M45 102l111 209q86 -47 169 -73.5t201 -26.5q70 0 119 18.5t80 50t44 72.5t13 84q0 111 -74.5 161t-211.5 50h-162v176l358 334q12 10 15.5 17.5t3.5 17.5q0 12 -10.5 16t-26.5 4h-557v246h745q92 0 140.5 -42t48.5 -118q0 -53 -21.5 -98t-81.5 -98l-278 -254
q205 -14 312.5 -118.5t107.5 -291.5q0 -211 -140.5 -338t-412.5 -127q-160 0 -276 34t-216 95z" />
    <glyph glyph-name="four" unicode="4" 
d="M61 526q0 70 36 125.5t83 114.5l561 692h269v-899h170v-225h-170v-334h-318v334h-436q-98 0 -146.5 51t-48.5 141zM352 602q0 -31 15.5 -37t54.5 -6h270v483l-311 -378q-16 -18 -22.5 -32t-6.5 -30z" />
    <glyph glyph-name="five" unicode="5" 
d="M90 96l111 203q162 -92 334 -92q70 0 116.5 20.5t76.5 54t42 78t12 91.5q0 229 -227 229q-78 0 -145.5 -20.5t-114.5 -43.5l-123 82l70 760h798v-246h-542l-31 -327q104 27 192 26q86 0 164 -25.5t137.5 -77.5t94.5 -134t35 -193q0 -115 -35 -208t-103.5 -159.5
t-171 -103.5t-237.5 -37q-166 0 -277.5 40t-175.5 83z" />
    <glyph glyph-name="six" unicode="6" 
d="M98 649q0 166 31 316.5t102.5 264t189.5 180.5t290 67q49 0 94 -4.5t91 -14.5t95 -29.5t105 -50.5l-113 -202q-84 45 -143.5 60t-124.5 15q-68 0 -117 -29.5t-82 -79.5t-50 -119t-22 -149q53 29 123 48.5t148 19.5q102 0 180 -34t130 -96t78.5 -149.5t26.5 -193.5
q0 -109 -32.5 -199t-97 -156.5t-161 -103.5t-221.5 -37q-143 0 -242.5 47.5t-160.5 134.5t-89 212t-28 282zM442 553q0 -66 6.5 -128.5t25 -113.5t53 -81.5t94.5 -30.5q102 0 138 73.5t36 196.5q0 139 -50.5 193.5t-126.5 54.5q-66 0 -108.5 -23t-65.5 -39q-2 -29 -2 -50
v-52z" />
    <glyph glyph-name="seven" unicode="7" 
d="M90 1212v246h862q84 0 118 -33.5t34 -87.5q0 -29 -13.5 -66.5t-27.5 -70.5l-510 -1200h-326l498 1151q14 29 14 43q0 10 -6 14t-26 4h-617z" />
    <glyph glyph-name="eight" unicode="8" 
d="M92 369q0 66 19.5 122t52.5 102t77 81.5t91 60.5q-76 41 -133.5 120t-57.5 204q0 90 32 167t94.5 132t154.5 87t215 32q225 0 344 -100.5t119 -276.5q0 -106 -56.5 -193.5t-146.5 -136.5q117 -57 179.5 -139t62.5 -221q0 -113 -45 -195t-119 -136t-169 -80t-196 -26
q-150 0 -249 35t-159.5 90.5t-85 126t-24.5 144.5zM395 381q0 -53 18.5 -90t49.5 -60.5t70.5 -35t82.5 -11.5q37 0 72 11.5t62.5 36t44 65.5t16.5 102q0 76 -42 124t-136 77l-121 33q-55 -47 -86 -106.5t-31 -145.5zM436 1083q0 -27 7.5 -56.5t26.5 -57t53 -52t85 -38.5
l97 -29q53 41 80.5 105.5t27.5 136.5q0 76 -45 128t-143 52q-55 0 -92 -17.5t-58.5 -45t-30 -61.5t-8.5 -65z" />
    <glyph glyph-name="nine" unicode="9" 
d="M98 981q0 106 34 197.5t100.5 158t165 103.5t227.5 37q135 0 231 -47.5t156.5 -134.5t89 -213t28.5 -281q0 -166 -25.5 -316.5t-92 -264.5t-182 -180.5t-295.5 -66.5q-98 0 -203 22.5t-199 76.5l113 202q84 -47 151.5 -61t132.5 -14q68 0 115 26.5t76 75.5t44 118.5
t19 155.5q-53 -29 -119.5 -48t-142.5 -19q-111 0 -190.5 36t-132 99.5t-77 149.5t-24.5 188zM434 981q0 -139 50.5 -193.5t125.5 -54.5q66 0 108.5 23t65.5 39q2 29 2 50v52q0 63 -6 126.5t-24.5 115t-54 82t-93.5 30.5q-102 0 -138 -73.5t-36 -196.5z" />
    <glyph glyph-name="colon" unicode=":" horiz-adv-x="563" 
d="M96 156q0 84 46 140t139 56q94 0 140 -56t46 -140t-46 -138.5t-140 -54.5q-92 0 -138.5 54.5t-46.5 138.5zM96 869q0 84 46 140t139 56q94 0 140 -56t46 -140t-46 -138.5t-140 -54.5q-92 0 -138.5 54.5t-46.5 138.5z" />
    <glyph glyph-name="semicolon" unicode=";" horiz-adv-x="598" 
d="M72 -260l94 571l299 -55l-195 -571zM131 869q0 84 46 140t139 56q94 0 140 -56t46 -140t-46 -138.5t-140 -54.5q-92 0 -138.5 54.5t-46.5 138.5z" />
    <glyph glyph-name="less" unicode="&#x3c;" 
d="M111 688q0 59 16 102.5t48 76t77 57t104 49.5l615 252l135 -199l-672 -272q-25 -10 -39 -23.5t-14 -42.5t14.5 -42t38.5 -23l672 -256l-135 -199l-615 235q-59 23 -105 47.5t-77 58.5t-47 77t-16 102z" />
    <glyph glyph-name="equal" unicode="=" 
d="M135 362v248h946v-248h-946zM135 782v248h946v-248h-946z" />
    <glyph glyph-name="greater" unicode="&#x3e;" 
d="M111 367l671 256q25 10 39.5 23t14.5 42t-14.5 42t-39.5 24l-671 272l135 199l614 -252q57 -25 103.5 -49.5t78 -57t48 -76t16.5 -102.5t-16.5 -102t-47 -77t-76.5 -58.5t-106 -47.5l-614 -235z" />
    <glyph glyph-name="question" unicode="?" horiz-adv-x="1165" 
d="M82 1350q100 76 219 116.5t258 40.5q256 0 372 -103.5t116 -277.5q0 -111 -49.5 -190.5t-118.5 -136.5l-88 -76q-27 -23 -48.5 -43.5t-36 -44t-22.5 -51t-8 -64.5v-43h-295v78q0 45 6 78t18.5 59.5t33 50t48.5 50.5l121 108q51 45 90 91t39 116q0 72 -50 113t-152 41
q-86 0 -161 -27t-163 -90zM342 156q0 84 47 140t139 56q94 0 141.5 -56t47.5 -140t-47.5 -138.5t-141.5 -54.5q-92 0 -139 54.5t-47 138.5z" />
    <glyph glyph-name="at" unicode="@" horiz-adv-x="2136" 
d="M92 465q0 242 85 427t226.5 311t326.5 191.5t388 65.5q248 0 424 -64.5t288 -173t163 -255t51 -308.5q0 -154 -46 -270.5t-127 -201.5t-191.5 -139t-237.5 -81l-107 94q-53 -41 -123.5 -69.5t-156.5 -28.5q-123 0 -209 35t-140.5 100.5t-80 157.5t-25.5 209q0 123 38 220
t106.5 165t166 102.5t217.5 34.5q47 0 102.5 -7t108 -18.5t95.5 -23.5t67 -23v-679l43 -58q74 43 119 96.5t69.5 114t34 129t9.5 141.5q0 127 -36 232.5t-115 182.5t-204 119t-303 42q-139 0 -274 -43t-241.5 -135t-171 -238.5t-64.5 -353.5q0 -377 193.5 -550t576.5 -173
q86 0 157.5 12.5t132 29.5t108.5 37.5t85 39.5l82 -168q-47 -27 -110.5 -55.5t-141.5 -53t-171 -40t-202 -15.5q-213 0 -394 51t-312 164t-205 291t-74 430zM920 471q0 -84 9 -138t29.5 -87t51 -46.5t71.5 -13.5t77 11.5t59 40.5v510q-16 4 -41 9t-70 5q-96 0 -141 -70.5
t-45 -220.5z" />
    <glyph glyph-name="A" unicode="A" horiz-adv-x="1380" 
d="M20 14l322 1145q23 78 50.5 141.5t68.5 107.5t98 68.5t137 24.5q82 0 141.5 -16.5t101.5 -55t71.5 -103t54.5 -161.5l295 -1161l-330 -33l-104 424h-480l-112 -428zM514 662h350l-110 468q-10 41 -21.5 61.5t-36.5 20.5q-29 0 -42 -19t-23 -60z" />
    <glyph glyph-name="B" unicode="B" horiz-adv-x="1275" 
d="M143 0v1477h543q109 0 196 -22.5t147.5 -71t93 -122t32.5 -178.5q0 -92 -41 -168.5t-133 -132.5q133 -59 183 -150t50 -208q0 -211 -125.5 -317.5t-381.5 -106.5h-564zM469 236h168q57 0 104 7t80 28.5t50.5 60.5t17.5 102t-15.5 101t-46 59.5t-75.5 29t-105 7.5h-178
v-395zM469 885h162q111 0 158 41t47 143t-52.5 142t-162.5 40h-152v-366z" />
    <glyph glyph-name="C" unicode="C" horiz-adv-x="1247" 
d="M102 729q0 377 172 577.5t494 200.5q72 0 130 -9t109.5 -25.5t96.5 -40t90 -50.5l-121 -213q-76 51 -148.5 71t-144.5 20q-82 0 -144.5 -29t-104.5 -91.5t-63.5 -164t-21.5 -246.5q0 -268 86 -389t248 -121q82 0 163 24.5t167 78.5l117 -216q-115 -76 -234 -109.5
t-239 -33.5q-340 0 -496 187.5t-156 578.5z" />
    <glyph glyph-name="D" unicode="D" horiz-adv-x="1441" 
d="M143 0v1477h559q332 0 484.5 -182.5t152.5 -567.5q0 -373 -159.5 -550t-493.5 -177h-543zM473 250h195q82 0 143 21.5t102 76.5t61.5 148.5t20.5 236.5q0 137 -18.5 232.5t-57 153t-99 83t-142.5 25.5h-205v-977z" />
    <glyph glyph-name="E" unicode="E" horiz-adv-x="1161" 
d="M143 0v1477h957v-256h-627v-338h465v-262h-465v-365h647v-256h-977z" />
    <glyph glyph-name="F" unicode="F" horiz-adv-x="1140" 
d="M143 0v1477h957v-256h-627v-353h465v-262h-465v-606h-330z" />
    <glyph glyph-name="G" unicode="G" horiz-adv-x="1388" 
d="M102 729q0 377 177.5 577.5t498.5 200.5q154 0 260.5 -37.5t186.5 -93.5l-121 -213q-66 51 -150 74t-163 23q-82 0 -146.5 -29t-110 -91.5t-69 -164t-23.5 -246.5q0 -274 79 -396t229 -122q61 0 123.5 9t111.5 32v311h-248v244h539v-705q-45 -27 -97.5 -52t-117 -44.5
t-144 -31t-180.5 -11.5q-172 0 -292.5 50t-196.5 146.5t-111 240t-35 329.5z" />
    <glyph glyph-name="H" unicode="H" horiz-adv-x="1413" 
d="M143 0v1477h330v-592h467v592h330v-1477h-330v618h-467v-618h-330z" />
    <glyph glyph-name="I" unicode="I" horiz-adv-x="616" 
d="M143 0v1477h330v-1477h-330z" />
    <glyph glyph-name="J" unicode="J" horiz-adv-x="1060" 
d="M12 76l103 215q47 -27 118.5 -52.5t163.5 -25.5q102 0 146.5 58.5t44.5 181.5v1024h330v-1004q0 -131 -27 -227t-86.5 -158.5t-154.5 -93.5t-230 -31t-242.5 36t-165.5 77z" />
    <glyph glyph-name="K" unicode="K" horiz-adv-x="1372" 
d="M143 0v1477h330v-592h76q51 0 79.5 24.5t57.5 69.5l305 524l312 -90l-388 -635l416 -735l-348 -70l-313 570q-12 20 -24.5 34.5t-28 23.5t-37 13t-54.5 4h-53v-618h-330z" />
    <glyph glyph-name="L" unicode="L" horiz-adv-x="1150" 
d="M143 0v1477h330v-1221h647v-256h-977z" />
    <glyph glyph-name="M" unicode="M" horiz-adv-x="1660" 
d="M102 0l74 1477h311l297 -680q10 -23 17.5 -35t25.5 -12t25.5 12t17.5 35l324 680h291l74 -1477h-316l-26 934l-187 -395q-35 -70 -82 -107t-127 -37q-86 0 -130 36t-79 108l-174 379l-26 -918h-310z" />
    <glyph glyph-name="N" unicode="N" horiz-adv-x="1462" 
d="M143 0v1477h371l471 -1067q6 -14 12.5 -25.5t16.5 -11.5q14 0 17 9t3 26v1069h285v-1225q0 -119 -61.5 -193.5t-208.5 -74.5q-68 0 -114 14t-79 42t-55.5 64.5t-42.5 83.5l-330 740v-928h-285z" />
    <glyph glyph-name="O" unicode="O" horiz-adv-x="1478" 
d="M102 729q0 377 162 577.5t479 200.5q305 0 469 -195.5t164 -582.5q0 -371 -158.5 -568.5t-490.5 -197.5q-168 0 -286.5 50t-193.5 146.5t-110 240t-35 329.5zM446 729q0 -274 69.5 -396t219.5 -122q74 0 129.5 27.5t93 89t56 161t18.5 242.5q0 276 -68.5 402.5
t-218.5 126.5q-70 0 -125 -29t-94 -91.5t-59.5 -164t-20.5 -246.5z" />
    <glyph glyph-name="P" unicode="P" horiz-adv-x="1241" 
d="M143 0v1477h469q127 0 230.5 -18.5t176.5 -70t111.5 -141.5t38.5 -231q0 -131 -42 -221t-115.5 -145.5t-176 -80t-223.5 -24.5h-139v-545h-330zM473 791h131q111 0 164 58t53 167q0 115 -46 170t-171 55h-131v-450z" />
    <glyph glyph-name="Q" unicode="Q" horiz-adv-x="1478" 
d="M102 729q0 377 162 577.5t479 200.5q305 0 469 -195.5t164 -582.5q0 -219 -54 -377.5t-167 -255.5l221 -268l-229 -172l-238 326q-84 -18 -182 -19q-168 0 -286.5 50t-193.5 146.5t-110 240t-35 329.5zM446 729q0 -274 69.5 -396t219.5 -122q74 0 129.5 27.5t93 89
t56 161t18.5 242.5q0 276 -68.5 402.5t-218.5 126.5q-70 0 -125 -29t-94 -91.5t-59.5 -164t-20.5 -246.5z" />
    <glyph glyph-name="R" unicode="R" horiz-adv-x="1316" 
d="M143 0v1477h502q109 0 203 -21.5t164.5 -71t110.5 -129t40 -196.5q0 -154 -75.5 -251t-186.5 -149q35 -25 68 -81l317 -564l-346 -45l-276 504q-29 47 -60 76t-102 29h-31v-578h-328zM473 823h121q115 0 163 54.5t48 154.5q0 106 -50 157.5t-167 51.5h-115v-418z" />
    <glyph glyph-name="S" unicode="S" horiz-adv-x="1224" 
d="M51 100l115 222q111 -63 203 -87t184 -24q135 0 192.5 49t57.5 135q0 41 -11.5 72t-42 54.5t-85 44t-140.5 40.5q-96 23 -176 54.5t-137 82t-89 124t-32 182.5q0 213 144.5 335.5t408.5 122.5q139 0 247.5 -29.5t221.5 -93.5l-121 -215q-20 12 -56 30t-80 32t-93 24.5
t-98 10.5q-131 0 -186.5 -45t-55.5 -117q0 -47 16.5 -79t53 -56.5t97 -45t148.5 -44.5q70 -20 141.5 -49t130 -77t96.5 -121t38 -183q0 -238 -146.5 -362t-427.5 -124q-168 0 -295 36t-223 101z" />
    <glyph glyph-name="T" unicode="T" horiz-adv-x="1169" 
d="M20 1221v256h1129v-256h-399v-1221h-330v1221h-400z" />
    <glyph glyph-name="U" unicode="U" horiz-adv-x="1456" 
d="M143 610v867h330v-844q0 -115 13.5 -195t44 -131t79.5 -73.5t121 -22.5q150 0 207 103.5t57 301.5v861h318v-854q0 -145 -29 -266t-96.5 -208.5t-181 -136.5t-283.5 -49q-168 0 -279.5 41t-178 122t-94.5 203t-28 281z" />
    <glyph glyph-name="V" unicode="V" horiz-adv-x="1392" 
d="M20 1464l347 33l284 -1165q10 -41 20.5 -61.5t35.5 -20.5q29 0 38 19.5t19 60.5l276 1171l322 -47l-295 -1151q-41 -160 -123.5 -251t-234.5 -91q-88 0 -150.5 16.5t-107.5 55.5t-77 103.5t-57 160.5z" />
    <glyph glyph-name="W" unicode="W" horiz-adv-x="2011" 
d="M20 1464l353 33l186 -1161q12 -82 47 -82q25 0 35 19.5t18 60.5l228 1143h278l224 -1141q8 -41 14 -61.5t31 -20.5q29 0 37 18.5t14 61.5l174 1167l321 -47l-192 -1151q-27 -160 -101.5 -251t-226.5 -91q-88 0 -146.5 16.5t-96 55.5t-62.5 103.5t-45 160.5l-102 506
l-88 -500q-14 -80 -39 -142.5t-64 -107.5t-94 -68.5t-131 -23.5q-88 0 -151.5 16.5t-107.5 54.5t-72 102.5t-44 162.5z" />
    <glyph glyph-name="X" unicode="X" horiz-adv-x="1343" 
d="M10 33l410 700l-354 697l333 67l226 -493q16 -29 26.5 -40.5t30.5 -11.5t30.5 11.5t24.5 35.5l271 498l309 -61l-375 -682l381 -713l-344 -70l-258 514q-16 31 -25.5 41.5t-29.5 10.5t-29.5 -11.5t-24.5 -36.5l-288 -518z" />
    <glyph glyph-name="Y" unicode="Y" horiz-adv-x="1206" 
d="M20 1452l326 45l215 -647q10 -31 21.5 -46.5t31.5 -15.5q16 0 27.5 10.5t28.5 51.5l233 647l293 -41l-287 -731q-20 -53 -55 -103.5t-88 -72.5v-549h-330v549q-66 16 -99.5 64.5t-62.5 125.5z" />
    <glyph glyph-name="Z" unicode="Z" horiz-adv-x="1196" 
d="M33 170q0 70 26.5 122t73.5 116l580 813h-629v256h1042v-211l-688 -955q-10 -12 -12 -18t-2 -17q0 -20 33 -20h678v-256h-920q-106 0 -144 45t-38 125z" />
    <glyph glyph-name="bracketleft" unicode="[" horiz-adv-x="737" 
d="M113 -297v1815h594v-226h-279v-1384h279v-205h-594z" />
    <glyph glyph-name="backslash" unicode="\" horiz-adv-x="968" 
d="M-10 1565h286l682 -1725h-286z" />
    <glyph glyph-name="bracketright" unicode="]" horiz-adv-x="737" 
d="M31 -92h278v1384h-278v226h594v-1815h-594v205z" />
    <glyph glyph-name="asciicircum" unicode="^" horiz-adv-x="1196" 
d="M82 774l242 533q20 47 44.5 83.5t56.5 61.5t74 38t99 13t99 -13t74 -38t55.5 -61.5t45.5 -83.5l242 -533l-246 -92l-213 524q-12 29 -22 46.5t-37 17.5t-39 -17.5t-25 -46.5l-213 -524z" />
    <glyph glyph-name="underscore" unicode="_" horiz-adv-x="1099" 
d="M102 0h895v-250h-895v250z" />
    <glyph glyph-name="grave" unicode="`" horiz-adv-x="1024" 
d="M289 1530l213 151l243 -393l-141 -102z" />
    <glyph glyph-name="a" unicode="a" horiz-adv-x="1062" 
d="M72 297q0 188 113.5 267t342.5 79h131v39q0 84 -34.5 130t-122.5 46q-92 0 -165 -16.5t-138 -44.5l-80 198q86 41 201.5 64.5t218.5 23.5q117 0 195.5 -23.5t126.5 -76.5t68.5 -137t20.5 -207v-416l68 -143l-240 -117l-92 135q-78 -68 -146.5 -101.5t-148.5 -33.5
q-152 0 -235.5 88t-83.5 246zM365 326q0 -78 34 -108t97 -30q41 0 88 22.5t75 51.5v205h-131q-78 0 -120.5 -26.5t-42.5 -114.5z" />
    <glyph glyph-name="b" unicode="b" horiz-adv-x="1185" 
d="M133 14v1493h313v-487q53 29 108.5 46t125.5 17q197 0 310.5 -141t113.5 -422q0 -104 -30 -203.5t-95.5 -178.5t-173 -127t-262.5 -48q-109 0 -216.5 13.5t-193.5 37.5zM446 201q23 -10 57 -13.5t50 -3.5q68 0 114 24.5t72.5 70t37.5 109t11 140.5q0 104 -14 169
t-38.5 101t-58.5 48t-73 12q-41 0 -75.5 -7t-82.5 -38v-612z" />
    <glyph glyph-name="c" unicode="c" horiz-adv-x="978" 
d="M82 520q0 268 136 415.5t388 147.5q100 0 173 -18t145 -59l-93 -201q-41 23 -88 38t-125 15q-104 0 -163.5 -79t-59.5 -259q0 -174 56.5 -253t162.5 -79q72 0 125.5 14.5t106.5 41.5l92 -195q-80 -47 -170 -66.5t-195 -19.5q-135 0 -228 36t-151.5 106.5t-85 175
t-26.5 239.5z" />
    <glyph glyph-name="d" unicode="d" horiz-adv-x="1202" 
d="M82 526q0 127 32.5 229.5t97 175.5t159 112.5t217.5 39.5q41 0 84 -8t84 -22v454h313v-1302l59 -131l-243 -115l-94 139q-68 -61 -142 -98t-166 -37q-205 0 -303 146.5t-98 416.5zM397 524q0 -188 47.5 -262t128.5 -74q63 0 107.5 36t75.5 75v530q-33 14 -63.5 21.5
t-69.5 7.5q-113 0 -169.5 -75.5t-56.5 -258.5z" />
    <glyph glyph-name="e" unicode="e" horiz-adv-x="1110" 
d="M82 520q0 125 31.5 228.5t93 178t155 115.5t216.5 41q119 0 203.5 -38.5t140 -112.5t81 -180.5t25.5 -239.5l-80 -88h-553q14 -127 72 -181.5t156 -54.5q86 0 152.5 13.5t133.5 48.5l92 -195q-96 -55 -197.5 -73.5t-221.5 -18.5q-268 0 -384 143.5t-116 413.5zM395 627
h340q0 231 -157 231q-82 0 -127 -48t-56 -183z" />
    <glyph glyph-name="f" unicode="f" horiz-adv-x="780" 
d="M23 825v222h141v81q0 176 96 277.5t305 101.5q45 0 83 -4t73 -13t68.5 -23.5t72.5 -34.5l-96 -195q-43 23 -82 34t-86 11q-78 0 -99.5 -49t-21.5 -137v-49h268v-222h-268v-825h-313v825h-141z" />
    <glyph glyph-name="g" unicode="g" horiz-adv-x="1193" 
d="M82 526q0 270 104.5 413.5t309.5 143.5q86 0 150.5 -29.5t129.5 -95.5l107 129l239 -114l-61 -156v-784q0 -244 -125 -369t-399 -125q-70 0 -123.5 3t-101.5 12.5t-95 27t-104 43.5l94 211q127 -72 295 -72q61 0 107 9.5t77 35t46.5 72.5t15.5 123v49q-53 -29 -120 -45
t-136 -16q-92 0 -168 30.5t-130.5 95t-83 166t-28.5 242.5zM397 522q0 -90 12.5 -149.5t36 -94t54 -48t67.5 -13.5q41 0 87 6t94 37v506q-27 41 -69 66.5t-91 25.5q-57 0 -94 -23.5t-58.5 -67.5t-30 -106.5t-8.5 -138.5z" />
    <glyph glyph-name="h" unicode="h" horiz-adv-x="1212" 
d="M133 0v1507h313v-551q76 61 139.5 94t155.5 33q109 0 176.5 -31.5t106.5 -90t52.5 -138.5t13.5 -174v-649h-314v604q0 121 -28.5 174t-120.5 53q-106 0 -181 -98v-733h-313z" />
    <glyph glyph-name="i" unicode="i" horiz-adv-x="600" 
d="M25 838v209h442v-1047h-313v838h-129zM111 1374q0 82 46 137.5t138 55.5t139 -55.5t47 -137.5t-47 -135t-139 -53t-138 53t-46 135z" />
    <glyph glyph-name="j" unicode="j" horiz-adv-x="602" 
d="M-242 -393l80 196q39 -14 76 -26.5t86 -12.5q94 0 124 59.5t30 174.5v1049h315v-1086q0 -92 -20.5 -170t-68.5 -134t-128 -87t-201 -31q-88 0 -160.5 18.5t-132.5 49.5zM125 1374q0 82 46 137.5t138 55.5t139.5 -55.5t47.5 -137.5t-47.5 -135t-139.5 -53t-138 53t-46 135
z" />
    <glyph glyph-name="k" unicode="k" horiz-adv-x="1130" 
d="M133 0v1505h313v-819h21q31 0 49.5 16.5t34.5 38.5l254 342l280 -67l-315 -422l336 -545l-315 -74l-248 420q-23 39 -37 51.5t-43 12.5h-17v-459h-313z" />
    <glyph glyph-name="l" unicode="l" horiz-adv-x="579" 
d="M4 1298v209h442v-1507h-313v1298h-129z" />
    <glyph glyph-name="m" unicode="m" horiz-adv-x="1771" 
d="M72 973l239 114l107 -149q84 76 158.5 110.5t144.5 34.5q115 0 180.5 -38.5t97.5 -108.5q78 70 159 108.5t163 38.5q104 0 167.5 -31.5t99.5 -90t48.5 -138.5t12.5 -174v-649h-314v604q0 59 -4 102.5t-17.5 71t-39 40.5t-68.5 13q-41 0 -85 -28.5t-77 -69.5
q2 -20 3.5 -40.5t1.5 -43.5v-649h-314v604q0 59 -4 102.5t-17.5 71t-39 40.5t-68.5 13q-37 0 -81 -25.5t-79 -72.5v-733h-313v817z" />
    <glyph glyph-name="n" unicode="n" horiz-adv-x="1212" 
d="M72 973l239 114l107 -149q84 76 157.5 110.5t165.5 34.5q109 0 176.5 -31.5t106.5 -90t52.5 -138.5t13.5 -174v-649h-314v604q0 121 -28.5 174t-120.5 53q-106 0 -181 -98v-733h-313v817z" />
    <glyph glyph-name="o" unicode="o" horiz-adv-x="1165" 
d="M82 520q0 129 32.5 233.5t96 178.5t159 112.5t220.5 38.5q254 0 373.5 -143t119.5 -412q0 -131 -30.5 -235.5t-94 -178t-160 -112.5t-225.5 -39q-137 0 -230 40t-151.5 113.5t-84 176t-25.5 227.5zM395 520q0 -174 45.5 -253t143.5 -79q94 0 139 76t45 258q0 176 -40 256
t-138 80q-96 0 -145.5 -76.5t-49.5 -261.5z" />
    <glyph glyph-name="p" unicode="p" horiz-adv-x="1210" 
d="M72 973l239 114l107 -149q57 66 135 105.5t170 39.5q205 0 305 -146t100 -417q0 -129 -34.5 -232.5t-100 -175t-160 -110.5t-215.5 -39q-41 0 -87 7t-85 18v-434h-313v1263zM446 217q29 -12 63 -20.5t75 -8.5q111 0 170 84t59 250q0 76 -7 138.5t-27.5 106.5t-55.5 67.5
t-92 23.5q-53 0 -101.5 -32.5t-83.5 -80.5v-528z" />
    <glyph glyph-name="q" unicode="q" horiz-adv-x="1189" 
d="M82 526q0 104 29.5 203.5t97 178.5t175.5 127t263 48q109 0 216.5 -13t193.5 -38v-1478h-314v473q-53 -29 -113.5 -46.5t-129.5 -17.5q-100 0 -178 32t-131.5 100.5t-81 175t-27.5 255.5zM397 518q0 -102 12.5 -165.5t35 -99.5t56.5 -49.5t74 -13.5q41 0 81 6.5t87 36.5
v617q-23 10 -56.5 13t-49.5 3q-129 0 -184.5 -91t-55.5 -257z" />
    <glyph glyph-name="r" unicode="r" horiz-adv-x="880" 
d="M14 838v209h392l30 -136q72 82 137.5 115t151.5 33q35 0 70.5 -3t68.5 -12l-80 -276q-20 10 -52 20.5t-85 10.5q-47 0 -99 -24.5t-91 -78.5v-696h-314v838h-129z" />
    <glyph glyph-name="s" unicode="s" horiz-adv-x="993" 
d="M41 68l98 194q66 -35 146 -60.5t176 -25.5q70 0 116 19.5t46 78.5q0 33 -16.5 53.5t-45.5 35t-72 25.5t-94 26q-53 14 -106 34.5t-95 55.5t-69 89t-27 136q0 174 118 264t321 90q96 0 191 -25.5t167 -62.5l-92 -192q-59 31 -129 51t-135 20q-86 0 -119 -27.5t-33 -66.5
q0 -31 15.5 -50t43 -34.5t63.5 -27t77 -23.5q55 -16 112.5 -37.5t105.5 -57.5t77.5 -89t29.5 -133q0 -78 -22.5 -144.5t-74.5 -116t-138 -77t-211 -27.5t-237.5 30t-186.5 75z" />
    <glyph glyph-name="t" unicode="t" horiz-adv-x="862" 
d="M23 825v222h182v299h303v-299h297v-222h-297v-424q0 -55 3 -95t14.5 -64.5t35 -36.5t66.5 -12q45 0 88 13t78 30l69 -195q-61 -29 -134 -53.5t-159 -24.5q-109 0 -181.5 21.5t-115.5 71.5t-60 132t-17 203v434h-172z" />
    <glyph glyph-name="u" unicode="u" horiz-adv-x="1196" 
d="M123 360v687h313v-629q0 -117 31 -162t115 -45q49 0 93 18.5t68 46.5v771h314v-822l67 -145l-252 -123l-94 129q-76 -68 -149.5 -95.5t-147.5 -27.5q-195 0 -276.5 100.5t-81.5 296.5z" />
    <glyph glyph-name="v" unicode="v" horiz-adv-x="1144" 
d="M20 1022l326 55l209 -833q8 -35 29 -35q10 0 18 5t14 28l207 835l301 -59l-241 -832q-33 -111 -103.5 -167t-193.5 -56q-84 0 -138.5 14.5t-89 42t-55 69.5t-37.5 97z" />
    <glyph glyph-name="w" unicode="w" horiz-adv-x="1685" 
d="M43 1022l322 55l151 -823q6 -35 25 -35q10 0 17 5t11 28l168 795h236l162 -793q8 -35 24 -35q10 0 17.5 5t11.5 28l158 825l296 -59l-192 -832q-25 -109 -91 -166t-183 -57q-72 0 -118 13.5t-76 41t-46 69.5t-27 99l-67 361l-78 -381q-8 -43 -24.5 -80t-46 -64.5t-75 -43
t-108.5 -15.5q-76 0 -125 17.5t-80 47t-47 70.5t-27 88z" />
    <glyph glyph-name="x" unicode="x" horiz-adv-x="1054" 
d="M25 33l254 479l-224 504l295 59l146 -350q10 -25 20 -35t29 -10q16 0 27.5 11t23.5 34l160 348l268 -61l-221 -471l227 -506l-299 -64l-145 367q-12 27 -21.5 36t-27.5 9q-16 0 -27.5 -11.5t-24.5 -33.5l-182 -367z" />
    <glyph glyph-name="y" unicode="y" horiz-adv-x="1114" 
d="M20 1022l326 55l170 -760q8 -35 19.5 -56t44.5 -21h34l179 837l301 -59l-285 -1114q-18 -72 -46 -137.5t-75 -116.5t-123 -81t-188 -30q-92 0 -171 14.5t-169 59.5l94 211q125 -59 221 -60q88 0 132 47.5t67 145.5l12 55h-49q-70 0 -117 14.5t-78.5 43t-51 68.5t-34.5 93
z" />
    <glyph glyph-name="z" unicode="z" horiz-adv-x="997" 
d="M59 133q0 39 12.5 73t47.5 79l418 542h-455v220h823v-199l-426 -557q-10 -14 -16 -23.5t-6 -21.5q0 -16 8 -21.5t24 -5.5h435v-219h-711q-86 0 -120 37t-34 96z" />
    <glyph glyph-name="braceleft" unicode="{" horiz-adv-x="927" 
d="M76 483v254h117q53 0 70.5 27t17.5 78v297q0 109 28.5 183.5t81.5 120.5t127 65.5t166 19.5q82 0 203 -35l-51 -209q-29 8 -49.5 14.5t-65.5 6.5q-47 0 -76 -16.5t-44 -42t-19 -59.5t-4 -71v-272q0 -90 -41 -147.5t-103 -86.5q61 -29 102.5 -86t41.5 -147v-273
q0 -37 3 -70.5t17 -59t42 -42t75 -16.5q45 0 68.5 6t52.5 15l51 -209q-121 -35 -203 -35q-92 0 -166 19.5t-127 65.5t-81.5 120.5t-28.5 183.5v297q0 51 -17.5 77.5t-70.5 26.5h-117z" />
    <glyph glyph-name="bar" unicode="|" horiz-adv-x="552" 
d="M123 -465v2085h307v-2085h-307z" />
    <glyph glyph-name="braceright" unicode="}" horiz-adv-x="927" 
d="M41 -272l51 209q29 -8 49.5 -14.5t65.5 -6.5q47 0 75.5 16.5t44 42t19.5 59.5t4 70v273q0 90 44 147.5t106 85.5q-61 29 -105.5 86.5t-44.5 147.5v272q0 37 -4 71t-19.5 59.5t-44 42t-75.5 16.5q-45 0 -65.5 -6.5t-49.5 -14.5l-51 209q121 35 203 35q92 0 165.5 -19.5
t127 -65.5t82 -121t28.5 -183v-297q0 -51 17.5 -78t70.5 -27h117v-254h-117q-53 0 -70.5 -26.5t-17.5 -77.5v-297q0 -109 -28.5 -183.5t-82 -120.5t-127 -65.5t-165.5 -19.5q-82 0 -203 35z" />
    <glyph glyph-name="asciitilde" unicode="~" horiz-adv-x="1298" 
d="M106 735q57 76 140.5 132.5t210.5 56.5q70 0 115.5 -15.5t84.5 -35t78 -36t94 -18.5q53 0 100.5 22.5t96.5 82.5l160 -176q-29 -37 -64 -72t-76.5 -60.5t-94 -41t-115.5 -15.5q-66 0 -110 16.5t-83 36t-81 36t-99 16.5q-53 0 -100.5 -23t-96.5 -82z" />
    <glyph glyph-name="uni00A0" unicode="&#xa0;" horiz-adv-x="397" 
 />
    <glyph glyph-name="exclamdown" unicode="&#xa1;" horiz-adv-x="649" 
d="M135 858q0 84 48.5 138.5t142.5 54.5q92 0 140 -54.5t48 -138.5t-48 -140t-140 -56q-94 0 -142.5 56t-48.5 140zM141 -463l52 1000h260l51 -1000h-363z" />
    <glyph glyph-name="cent" unicode="&#xa2;" 
d="M199 653q0 225 96 365.5t278 181.5v244h242v-234q66 -6 118 -24.5t107 -46.5l-92 -201q-41 23 -88 38t-125 15q-104 0 -163.5 -78.5t-59.5 -259.5q0 -174 56.5 -252.5t162.5 -78.5q72 0 125 14t107 41l92 -195q-57 -33 -117.5 -51t-128.5 -29v-241h-242v243
q-201 33 -284.5 172.5t-83.5 376.5z" />
    <glyph glyph-name="sterling" unicode="&#xa3;" 
d="M90 608v240h238l57 242q23 96 59.5 168.5t95 120.5t141.5 73t198 25q92 0 175 -25t152 -59l-90 -205q-55 29 -110.5 47t-126.5 18q-76 0 -124 -37.5t-71 -134.5l-53 -233h350v-240h-403l-54 -237q-4 -16 -8 -34t-4 -34q0 -57 70 -57h528v-246h-793q-84 0 -115.5 38
t-31.5 85q0 31 6 61.5t14 65.5l82 358h-182z" />
    <glyph glyph-name="currency" unicode="&#xa4;" 
d="M70 362l141 150q-31 51 -48.5 109.5t-17.5 123.5q0 66 17.5 123.5t48.5 108.5l-141 149l168 164l143 -151q104 57 229 57q121 0 226 -57l143 151l168 -164l-141 -149q31 -51 48 -108.5t17 -123.5t-17.5 -124t-47.5 -111l141 -148l-168 -163l-143 149q-104 -57 -226 -57
q-125 0 -229 57l-143 -149zM395 745q0 -47 16.5 -89t46 -72.5t68.5 -49t84 -18.5q92 0 152.5 66.5t60.5 162.5t-60.5 162t-152.5 66q-45 0 -84 -17.5t-68.5 -48t-46 -73t-16.5 -89.5z" />
    <glyph glyph-name="yen" unicode="&#xa5;" 
d="M80 1456l311 41l205 -631q10 -27 15 -39t24 -12q16 0 21.5 12.5t15.5 38.5l198 627l281 -37l-229 -647h192v-211h-342v-115h342v-211h-342v-272h-313v272h-357v211h357v115h-357v211h205z" />
    <glyph glyph-name="brokenbar" unicode="&#xa6;" horiz-adv-x="552" 
d="M123 401h307v-866h-307v866zM123 877v743h307v-743h-307z" />
    <glyph glyph-name="section" unicode="&#xa7;" horiz-adv-x="1173" 
d="M98 567q0 76 36 154t122 151q-45 39 -70.5 93.5t-25.5 134.5q0 92 35.5 162.5t97 117.5t146.5 72t184 25q57 0 115.5 -9.5t109.5 -21.5t92 -26.5t66 -26.5l-86 -203q-51 23 -123 43t-164 20q-86 0 -128 -23.5t-42 -78.5q0 -39 14.5 -61.5t46 -40t80.5 -30.5t119 -34
q98 -29 164.5 -57.5t106.5 -67.5t57.5 -91t17.5 -126q0 -76 -36 -153.5t-122 -153.5q45 -37 71 -91.5t26 -133.5q0 -92 -36 -163t-97.5 -118t-146.5 -71.5t-183 -24.5q-59 0 -116.5 9t-109 21.5t-92.5 26.5t-65 27l86 202q51 -23 122.5 -43t164.5 -20q86 0 128 23.5t42 78.5
q0 39 -14.5 61.5t-46.5 40t-81 31t-119 33.5q-98 29 -164.5 57.5t-106.5 67.5t-57.5 91.5t-17.5 125.5zM377 643q0 -29 7 -51.5t28.5 -43t58.5 -37.5t98 -36l156 -47q31 33 48.5 65.5t17.5 73.5q0 29 -7.5 51.5t-29 43t-58.5 38t-98 35.5l-156 45q-31 -31 -48 -63.5
t-17 -73.5z" />
    <glyph glyph-name="dieresis" unicode="&#xa8;" horiz-adv-x="1024" 
d="M143 1384q0 72 40 119t118 47t119 -47t41 -119t-41 -116.5t-119 -44.5t-118 45t-40 116zM616 1384q0 72 40 119t118 47q80 0 120 -47t40 -119t-40 -116.5t-120 -44.5q-78 0 -118 45t-40 116z" />
    <glyph glyph-name="copyright" unicode="&#xa9;" horiz-adv-x="1705" 
d="M143 737q0 154 53.5 288t150.5 233.5t234.5 158t305.5 58.5t305 -58.5t232.5 -158t147.5 -233.5t52 -288t-53 -288t-150.5 -233t-234.5 -157.5t-305 -58.5q-172 0 -309.5 58.5t-232.5 157.5t-145.5 233t-50.5 288zM334 737q0 -117 38 -220t109.5 -180t174 -122t231.5 -45
t231.5 45t173 122t108.5 180.5t38 219.5q0 117 -38 220.5t-108.5 180t-173 121t-231.5 44.5t-231.5 -44.5t-174 -121t-109.5 -180t-38 -220.5zM522 737q0 182 100.5 287.5t280.5 105.5q57 0 114.5 -13t129.5 -50l-66 -141q-55 27 -90 34t-80 7q-74 0 -113.5 -55.5
t-39.5 -174.5q0 -63 13 -105t35.5 -66.5t52.5 -35t63 -10.5q39 0 85 8.5t89 30.5l59 -149q-59 -31 -123.5 -47.5t-138.5 -16.5q-190 0 -280.5 105.5t-90.5 285.5z" />
    <glyph glyph-name="ordfeminine" unicode="&#xaa;" horiz-adv-x="1036" 
d="M170 797q0 135 86 193.5t258 58.5h82v20q0 57 -24.5 87t-86.5 30q-68 0 -119 -13.5t-98 -31.5l-65 151q70 29 155.5 46.5t157.5 17.5q86 0 144.5 -16.5t95.5 -54.5t52 -98.5t15 -146.5v-295l49 -102l-180 -82l-67 94q-57 -47 -104.5 -70.5t-106.5 -23.5
q-115 0 -179.5 62.5t-64.5 173.5zM401 819q0 -55 24.5 -71.5t63.5 -16.5q29 0 56.5 13.5t50.5 35.5v133h-82q-49 0 -81 -16t-32 -78z" />
    <glyph glyph-name="guillemotleft" unicode="&#xab;" horiz-adv-x="1236" 
d="M113 561q0 61 28.5 105.5t71.5 78.5l264 216l180 -87l-223 -221q-27 -27 -41 -43t-14 -39t15.5 -39t56.5 -53l213 -198l-172 -93l-252 179q-66 47 -96.5 88t-30.5 106zM615 561q0 61 28.5 105.5t71.5 78.5l264 216l180 -87l-223 -221q-27 -27 -41 -43t-14 -39t15.5 -39
t56.5 -53l213 -198l-172 -93l-252 179q-66 47 -96.5 88t-30.5 106z" />
    <glyph glyph-name="logicalnot" unicode="&#xac;" horiz-adv-x="1443" 
d="M225 573v246h994v-506h-252v260h-742z" />
    <glyph glyph-name="uni00AD" unicode="&#xad;" horiz-adv-x="921" 
d="M133 516v254h655v-254h-655z" />
    <glyph glyph-name="registered" unicode="&#xae;" horiz-adv-x="1269" 
d="M94 948q0 109 37 206t106.5 170t169 115t222.5 42q129 0 228 -41t167 -113t103.5 -168t35.5 -205t-40 -205t-110.5 -166.5t-169 -111.5t-214.5 -41q-119 0 -217.5 40t-169 109.5t-109.5 164.5t-39 204zM254 948q0 -76 23.5 -143.5t70.5 -118.5t117 -81t164 -30
q100 0 170.5 31t117 82t68 120t21.5 146q0 78 -21.5 146.5t-68 121t-117 83t-170.5 30.5t-172 -31.5t-117 -85t-65.5 -123t-20.5 -147.5zM449 715v497h219q68 0 118 -38.5t50 -114.5q0 -96 -84 -137q4 -4 10 -12.5t14 -22.5l88 -150l-145 -26l-74 139q-8 16 -16 22.5
t-27 6.5h-16v-164h-137zM586 987h43q37 0 52 18.5t15 47.5q0 53 -59 53h-51v-119z" />
    <glyph glyph-name="macron" unicode="&#xaf;" horiz-adv-x="1024" 
d="M156 1260v223h712v-223h-712z" />
    <glyph glyph-name="degree" unicode="&#xb0;" horiz-adv-x="753" 
d="M92 1198q0 57 21.5 108.5t60.5 89.5t90 59.5t113 21.5q61 0 112.5 -21.5t90 -59.5t60.5 -89.5t22 -108.5t-22 -108.5t-60.5 -89t-90 -59t-112.5 -21.5q-63 0 -115.5 21.5t-90.5 59t-58.5 89t-20.5 108.5zM256 1198q0 -57 34 -92t87 -35t87 35t34 92t-34 92t-87 35
t-87 -35t-34 -92z" />
    <glyph glyph-name="plusminus" unicode="&#xb1;" 
d="M137 0v246h942v-246h-942zM137 686v246h348v321h246v-321h348v-246h-348v-321h-246v321h-348z" />
    <glyph glyph-name="uni00B2" unicode="&#xb2;" horiz-adv-x="860" 
d="M94 707q0 43 21.5 77.5t68.5 73.5l205 178q45 41 79 77t34 83q0 29 -21.5 56.5t-85.5 27.5q-43 0 -94 -17.5t-98 -45.5l-101 155q57 39 145.5 72t192.5 33q86 0 145.5 -19.5t96.5 -53.5t54.5 -80t17.5 -97q0 -49 -13.5 -90t-38 -78t-60.5 -74t-83 -76l-151 -131h360v-196
h-522q-72 0 -112 26.5t-40 98.5z" />
    <glyph glyph-name="uni00B3" unicode="&#xb3;" horiz-adv-x="860" 
d="M61 647l93 172q33 -16 61.5 -28.5t57 -20.5t60.5 -11t75 -3q72 0 95 29.5t23 74.5q0 53 -40 75.5t-119 22.5h-109v121l213 191h-358v188h501q133 0 134 -115q0 -35 -17.5 -62.5t-56.5 -61.5l-135 -117q117 -23 175 -87.5t58 -164.5q0 -131 -93 -209t-278 -78
q-59 0 -107 5t-88 16.5t-75 27t-70 35.5z" />
    <glyph glyph-name="acute" unicode="&#xb4;" horiz-adv-x="1024" 
d="M289 1288l243 393l213 -151l-315 -344z" />
    <glyph glyph-name="uni00B5" unicode="&#xb5;" horiz-adv-x="1179" 
d="M113 -446v1493h313v-629q0 -117 36 -162t120 -45q49 0 93 18.5t68 46.5v771h314v-822l67 -145l-252 -123l-94 129q-51 -55 -116.5 -89t-131.5 -34q-27 0 -58.5 4t-51.5 15v-428h-307z" />
    <glyph glyph-name="paragraph" unicode="&#xb6;" horiz-adv-x="1368" 
d="M113 963q0 154 56 253t140 157.5t180.5 81t176.5 22.5h620v-246h-164v-1057q0 -139 -30.5 -243.5t-96 -174t-171 -103.5t-253.5 -34q-53 0 -107 9.5t-101.5 21.5t-82 24.5t-49.5 20.5l88 237q45 -20 110 -40.5t138 -20.5q59 0 103.5 16.5t74 55.5t44 102.5t14.5 157.5
v1028h-170v-756q-248 0 -384 117t-136 371z" />
    <glyph glyph-name="periodcentered" unicode="&#xb7;" horiz-adv-x="563" 
d="M96 752q0 84 46 140t139 56q94 0 140 -56t46 -140t-46 -138.5t-140 -54.5q-92 0 -138.5 54.5t-46.5 138.5z" />
    <glyph glyph-name="cedilla" unicode="&#xb8;" horiz-adv-x="1024" 
d="M242 -430l67 135q39 -23 75 -37t83 -14q92 0 92 63q0 49 -44 61.5t-122 12.5l62 229h153l-30 -124q37 -4 71.5 -15.5t62 -32t45 -52.5t17.5 -77q0 -92 -62.5 -155.5t-209.5 -63.5q-29 0 -64 5.5t-69.5 14.5t-68.5 22.5t-58 27.5z" />
    <glyph glyph-name="uni00B9" unicode="&#xb9;" horiz-adv-x="860" 
d="M92 1262l203 143q25 16 45 29.5t40.5 22.5t44.5 14.5t56 5.5q72 0 99.5 -36t27.5 -98v-565h178v-196h-606v196h191v453l-164 -115z" />
    <glyph glyph-name="ordmasculine" unicode="&#xba;" horiz-adv-x="1030" 
d="M147 958q0 190 95.5 294t273.5 104q180 0 273.5 -103.5t93.5 -294.5q0 -195 -93.5 -296t-281.5 -101q-197 0 -279 102t-82 295zM385 958q0 -125 35 -178t94 -53q61 0 95 51t34 180q0 123 -29.5 177.5t-93.5 54.5q-61 0 -98 -51.5t-37 -180.5z" />
    <glyph glyph-name="guillemotright" unicode="&#xbb;" horiz-adv-x="1236" 
d="M72 281l213 198q41 37 56 53.5t15 38.5q0 23 -14 39.5t-41 42.5l-223 221l180 87l264 -216q43 -35 72 -76.5t29 -103.5q0 -66 -31 -108.5t-96 -89.5l-252 -179zM574 281l213 198q41 37 56 53.5t15 38.5q0 23 -14 39.5t-41 42.5l-223 221l180 87l264 -216q43 -35 72 -76.5
t29 -103.5q0 -66 -31 -108.5t-96 -89.5l-252 -179z" />
    <glyph glyph-name="onequarter" unicode="&#xbc;" horiz-adv-x="2048" 
d="M59 1262l203 143q25 16 45 29.5t40.5 22.5t44.5 14.5t56 5.5q72 0 99.5 -36t27.5 -98v-565h178v-196h-606v196h191v453l-164 -115zM580 0l794 1477h256l-792 -1477h-258zM1228 318q0 41 18.5 68.5t45.5 60.5l373 440h204v-526h131v-168h-131v-182h-225v182h-264
q-152 0 -152 125zM1450 369q0 -8 8 -8h192v252l-190 -226q-10 -12 -10 -18z" />
    <glyph glyph-name="onehalf" unicode="&#xbd;" horiz-adv-x="2048" 
d="M90 1262l203 143q25 16 45 29.5t40.5 22.5t44.5 14.5t56 5.5q72 0 99.5 -36t27.5 -98v-565h178v-196h-606v196h191v453l-164 -115zM541 0l794 1477h256l-792 -1477h-258zM1294 136q0 43 21.5 77.5t68.5 73.5l205 178q45 41 79 77t34 83q0 29 -21.5 56.5t-85.5 27.5
q-43 0 -94 -17.5t-98 -45.5l-101 155q57 39 145.5 72t192.5 33q86 0 145.5 -19.5t96.5 -53.5t54.5 -80t17.5 -97q0 -49 -13.5 -90t-38 -78t-60.5 -74t-83 -76l-151 -131h360v-196h-522q-72 0 -112 26.5t-40 98.5z" />
    <glyph glyph-name="threequarters" unicode="&#xbe;" horiz-adv-x="2048" 
d="M41 647l93 172q33 -16 61.5 -28.5t57 -20.5t60.5 -11t75 -3q72 0 95 29.5t23 74.5q0 53 -40 75.5t-119 22.5h-109v121l213 191h-358v188h501q133 0 134 -115q0 -35 -17.5 -62.5t-56.5 -61.5l-135 -117q117 -23 175 -87.5t58 -164.5q0 -131 -93 -209t-278 -78
q-59 0 -107 5t-88 16.5t-75 27t-70 35.5zM543 0l794 1477h256l-792 -1477h-258zM1241 318q0 41 18.5 68.5t45.5 60.5l373 440h204v-526h131v-168h-131v-182h-225v182h-264q-152 0 -152 125zM1463 369q0 -8 8 -8h192v252l-190 -226q-10 -12 -10 -18z" />
    <glyph glyph-name="questiondown" unicode="&#xbf;" horiz-adv-x="1169" 
d="M147 -113q0 111 49.5 191t118.5 137l88 76q27 23 48.5 43t36 43.5t22.5 51.5t8 65v43h295v-78q0 -45 -6 -78t-18.5 -59.5t-33 -50t-48.5 -50.5l-121 -108q-51 -45 -90 -91.5t-39 -115.5q0 -72 50 -113t152 -41q86 0 161 26.5t163 90.5l129 -205q-100 -76 -219 -117
t-258 -41q-256 0 -372 103.5t-116 277.5zM475 858q0 84 48.5 138.5t142.5 54.5q92 0 140 -54.5t48 -138.5t-48 -140t-140 -56q-94 0 -142.5 56t-48.5 140z" />
    <glyph glyph-name="Agrave" unicode="&#xc0;" horiz-adv-x="1380" 
d="M20 14l322 1145q23 78 50.5 141.5t68.5 107.5t98 68.5t137 24.5q82 0 141.5 -16.5t101.5 -55t71.5 -103t54.5 -161.5l295 -1161l-330 -33l-104 424h-480l-112 -428zM426 1835l176 201l354 -346l-114 -140zM514 662h350l-110 468q-10 41 -21.5 61.5t-36.5 20.5
q-29 0 -42 -19t-23 -60z" />
    <glyph glyph-name="Aacute" unicode="&#xc1;" horiz-adv-x="1380" 
d="M20 14l322 1145q23 78 50.5 141.5t68.5 107.5t98 68.5t137 24.5q82 0 141.5 -16.5t101.5 -55t71.5 -103t54.5 -161.5l295 -1161l-330 -33l-104 424h-480l-112 -428zM465 1690l354 346l176 -201l-416 -285zM514 662h350l-110 468q-10 41 -21.5 61.5t-36.5 20.5
q-29 0 -42 -19t-23 -60z" />
    <glyph glyph-name="Acircumflex" unicode="&#xc2;" horiz-adv-x="1380" 
d="M20 14l322 1145q23 78 50.5 141.5t68.5 107.5t98 68.5t137 24.5q82 0 141.5 -16.5t101.5 -55t71.5 -103t54.5 -161.5l295 -1161l-330 -33l-104 424h-480l-112 -428zM358 1669l219 281h244l219 -281l-133 -110l-209 192l-207 -192zM514 662h350l-110 468
q-10 41 -21.5 61.5t-36.5 20.5q-29 0 -42 -19t-23 -60z" />
    <glyph glyph-name="Atilde" unicode="&#xc3;" horiz-adv-x="1380" 
d="M20 14l322 1145q23 78 50.5 141.5t68.5 107.5t98 68.5t137 24.5q82 0 141.5 -16.5t101.5 -55t71.5 -103t54.5 -161.5l295 -1161l-330 -33l-104 424h-480l-112 -428zM291 1596q0 143 57 233t162 90q47 0 94 -15t92 -38q35 -16 72 -30.5t65 -14.5q41 0 57.5 24.5t20.5 79.5
h174q0 -143 -57.5 -233t-161.5 -90q-47 0 -94 15.5t-92 37.5q-35 16 -72 30.5t-65 14.5q-41 0 -57.5 -24.5t-20.5 -79.5h-174zM514 662h350l-110 468q-10 41 -21.5 61.5t-36.5 20.5q-29 0 -42 -19t-23 -60z" />
    <glyph glyph-name="Adieresis" unicode="&#xc4;" horiz-adv-x="1380" 
d="M20 14l322 1145q23 78 50.5 141.5t68.5 107.5t98 68.5t137 24.5q82 0 141.5 -16.5t101.5 -55t71.5 -103t54.5 -161.5l295 -1161l-330 -33l-104 424h-480l-112 -428zM299 1751q0 72 40 119t118 47t119 -47t41 -119t-41 -117t-119 -45t-118 45t-40 117zM514 662h350
l-110 468q-10 41 -21.5 61.5t-36.5 20.5q-29 0 -42 -19t-23 -60zM772 1751q0 72 40 119t118 47q80 0 120 -47t40 -119t-40 -117t-120 -45q-78 0 -118 45t-40 117z" />
    <glyph glyph-name="Aring" unicode="&#xc5;" horiz-adv-x="1380" 
d="M20 14l322 1145q23 78 50.5 141.5t68.5 107.5t98 68.5t137 24.5q82 0 141.5 -16.5t101.5 -55t71.5 -103t54.5 -161.5l295 -1161l-330 -33l-104 424h-480l-112 -428zM424 1827q0 55 21.5 104t58 86t86 58.5t104.5 21.5t104.5 -21.5t86 -58.5t58 -86t21.5 -104
t-21.5 -104.5t-58 -86.5t-86 -58.5t-104.5 -21.5t-104.5 21.5t-86 58.5t-58 86.5t-21.5 104.5zM514 662h350l-110 468q-10 41 -21.5 61.5t-36.5 20.5q-29 0 -42 -19t-23 -60zM579 1827q0 -47 33 -82t82 -35t82 35t33 82t-34 82t-81 35t-81 -35t-34 -82z" />
    <glyph glyph-name="AE" unicode="&#xc6;" horiz-adv-x="2066" 
d="M10 10l568 1125q47 94 87 159.5t89 105.5t115.5 58.5t168.5 18.5h967v-256h-627v-369h465v-262h-465v-334h647v-256h-976v590h-414l-301 -627zM760 852h289v369h-48q-43 0 -62 -19.5t-40 -60.5z" />
    <glyph glyph-name="Ccedilla" unicode="&#xc7;" horiz-adv-x="1247" 
d="M102 729q0 377 172 577.5t494 200.5q72 0 130 -9t109.5 -25.5t96.5 -40t90 -50.5l-121 -213q-76 51 -148.5 71t-144.5 20q-82 0 -144.5 -29t-104.5 -91.5t-63.5 -164t-21.5 -246.5q0 -268 86 -389t248 -121q82 0 163 24.5t167 78.5l117 -216q-98 -66 -199.5 -98.5
t-206.5 -40.5l-16 -71q37 -4 71.5 -15.5t62.5 -32t45 -52.5t17 -77q0 -92 -62 -155.5t-210 -63.5q-29 0 -63.5 5.5t-69.5 14.5t-68.5 22.5t-58.5 27.5l68 135q39 -23 74.5 -37t82.5 -14q92 0 92 63q0 49 -44 61.5t-121 12.5l47 176q-293 23 -429.5 209t-136.5 553z" />
    <glyph glyph-name="Egrave" unicode="&#xc8;" horiz-adv-x="1161" 
d="M143 0v1477h957v-256h-627v-338h465v-262h-465v-365h647v-256h-977zM340 1835l176 201l354 -346l-114 -140z" />
    <glyph glyph-name="Eacute" unicode="&#xc9;" horiz-adv-x="1161" 
d="M143 0v1477h957v-256h-627v-338h465v-262h-465v-365h647v-256h-977zM426 1690l354 346l176 -201l-416 -285z" />
    <glyph glyph-name="Ecircumflex" unicode="&#xca;" horiz-adv-x="1161" 
d="M143 0v1477h957v-256h-627v-338h465v-262h-465v-365h647v-256h-977zM307 1669l219 281h244l219 -281l-133 -110l-209 192l-207 -192z" />
    <glyph glyph-name="Edieresis" unicode="&#xcb;" horiz-adv-x="1161" 
d="M143 0v1477h957v-256h-627v-338h465v-262h-465v-365h647v-256h-977zM233 1751q0 72 40 119t118 47t119 -47t41 -119t-41 -117t-119 -45t-118 45t-40 117zM706 1751q0 72 40 119t118 47q80 0 120 -47t40 -119t-40 -117t-120 -45q-78 0 -118 45t-40 117z" />
    <glyph glyph-name="Igrave" unicode="&#xcc;" horiz-adv-x="616" 
d="M25 1835l176 201l354 -346l-114 -140zM143 0v1477h330v-1477h-330z" />
    <glyph glyph-name="Iacute" unicode="&#xcd;" horiz-adv-x="616" 
d="M72 1690l354 346l176 -201l-416 -285zM143 0v1477h330v-1477h-330z" />
    <glyph glyph-name="Icircumflex" unicode="&#xce;" horiz-adv-x="616" 
d="M-31 1669l219 281h244l219 -281l-133 -110l-209 192l-207 -192zM143 0v1477h330v-1477h-330z" />
    <glyph glyph-name="Idieresis" unicode="&#xcf;" horiz-adv-x="616" 
d="M-58 1751q0 72 40 119t118 47t119 -47t41 -119t-41 -117t-119 -45t-118 45t-40 117zM143 0v1477h330v-1477h-330zM415 1751q0 72 40 119t118 47q80 0 120 -47t40 -119t-40 -117t-120 -45q-78 0 -118 45t-40 117z" />
    <glyph glyph-name="Eth" unicode="&#xd0;" horiz-adv-x="1486" 
d="M10 618v246h178v613h560q332 0 484 -182.5t152 -567.5q0 -373 -159.5 -550t-493.5 -177h-543v618h-178zM518 250h195q82 0 143.5 21.5t102 76.5t61 148.5t20.5 236.5q0 137 -18 232.5t-57 153t-99.5 83t-142.5 25.5h-205v-363h307v-246h-307v-368z" />
    <glyph glyph-name="Ntilde" unicode="&#xd1;" horiz-adv-x="1462" 
d="M143 0v1477h371l471 -1067q6 -14 12.5 -25.5t16.5 -11.5q14 0 17 9t3 26v1069h285v-1225q0 -119 -61.5 -193.5t-208.5 -74.5q-68 0 -114 14t-79 42t-55.5 64.5t-42.5 83.5l-330 740v-928h-285zM359 1595q0 143 57 233.5t162 90.5q47 0 94 -15.5t92 -37.5q35 -16 72 -30.5
t65 -14.5q41 0 57.5 24.5t20.5 79.5h174q0 -143 -57.5 -233t-161.5 -90q-47 0 -94 15t-92 38q-35 16 -72 30.5t-65 14.5q-41 0 -57.5 -24.5t-20.5 -80.5h-174z" />
    <glyph glyph-name="Ograve" unicode="&#xd2;" horiz-adv-x="1478" 
d="M102 729q0 377 162 577.5t479 200.5q305 0 469 -195.5t164 -582.5q0 -371 -158.5 -568.5t-490.5 -197.5q-168 0 -286.5 50t-193.5 146.5t-110 240t-35 329.5zM446 729q0 -274 69.5 -396t219.5 -122q74 0 129.5 27.5t93 89t56 161t18.5 242.5q0 276 -68.5 402.5
t-218.5 126.5q-70 0 -125 -29t-94 -91.5t-59.5 -164t-20.5 -246.5zM473 1835l176 201l354 -346l-114 -140z" />
    <glyph glyph-name="Oacute" unicode="&#xd3;" horiz-adv-x="1478" 
d="M102 729q0 377 162 577.5t479 200.5q305 0 469 -195.5t164 -582.5q0 -371 -158.5 -568.5t-490.5 -197.5q-168 0 -286.5 50t-193.5 146.5t-110 240t-35 329.5zM446 729q0 -274 69.5 -396t219.5 -122q74 0 129.5 27.5t93 89t56 161t18.5 242.5q0 276 -68.5 402.5
t-218.5 126.5q-70 0 -125 -29t-94 -91.5t-59.5 -164t-20.5 -246.5zM535 1690l354 346l176 -201l-416 -285z" />
    <glyph glyph-name="Ocircumflex" unicode="&#xd4;" horiz-adv-x="1478" 
d="M102 729q0 377 162 577.5t479 200.5q305 0 469 -195.5t164 -582.5q0 -371 -158.5 -568.5t-490.5 -197.5q-168 0 -286.5 50t-193.5 146.5t-110 240t-35 329.5zM397 1669l219 281h244l219 -281l-133 -110l-209 192l-207 -192zM446 729q0 -274 69.5 -396t219.5 -122
q74 0 129.5 27.5t93 89t56 161t18.5 242.5q0 276 -68.5 402.5t-218.5 126.5q-70 0 -125 -29t-94 -91.5t-59.5 -164t-20.5 -246.5z" />
    <glyph glyph-name="Otilde" unicode="&#xd5;" horiz-adv-x="1478" 
d="M102 729q0 377 162 577.5t479 200.5q305 0 469 -195.5t164 -582.5q0 -371 -158.5 -568.5t-490.5 -197.5q-168 0 -286.5 50t-193.5 146.5t-110 240t-35 329.5zM355 1595q0 143 57 233.5t162 90.5q47 0 94 -15.5t92 -37.5q35 -16 72 -30.5t65 -14.5q41 0 57.5 24.5
t20.5 79.5h174q0 -143 -57.5 -233t-161.5 -90q-47 0 -94 15t-92 38q-35 16 -72 30.5t-65 14.5q-41 0 -57.5 -24.5t-20.5 -80.5h-174zM446 729q0 -274 69.5 -396t219.5 -122q74 0 129.5 27.5t93 89t56 161t18.5 242.5q0 276 -68.5 402.5t-218.5 126.5q-70 0 -125 -29
t-94 -91.5t-59.5 -164t-20.5 -246.5z" />
    <glyph glyph-name="Odieresis" unicode="&#xd6;" horiz-adv-x="1478" 
d="M102 729q0 377 162 577.5t479 200.5q305 0 469 -195.5t164 -582.5q0 -371 -158.5 -568.5t-490.5 -197.5q-168 0 -286.5 50t-193.5 146.5t-110 240t-35 329.5zM370 1751q0 72 40 119t118 47t119 -47t41 -119t-41 -117t-119 -45t-118 45t-40 117zM446 729q0 -274 69.5 -396
t219.5 -122q74 0 129.5 27.5t93 89t56 161t18.5 242.5q0 276 -68.5 402.5t-218.5 126.5q-70 0 -125 -29t-94 -91.5t-59.5 -164t-20.5 -246.5zM843 1751q0 72 40 119t118 47q80 0 120 -47t40 -119t-40 -117t-120 -45q-78 0 -118 45t-40 117z" />
    <glyph glyph-name="multiply" unicode="&#xd7;" 
d="M180 440l258 256l-258 256l172 172l256 -258l256 258l172 -172l-258 -256l258 -256l-172 -172l-256 258l-256 -258z" />
    <glyph glyph-name="Oslash" unicode="&#xd8;" horiz-adv-x="1478" 
d="M102 729q0 377 162 577.5t479 200.5q147 0 258 -45l80 152h262l-149 -283q90 -98 136 -247.5t46 -354.5q0 -371 -158.5 -568.5t-490.5 -197.5q-70 0 -129 8.5t-113 24.5l-86 -164h-262l150 283q-98 96 -141.5 249.5t-43.5 364.5zM446 729q0 -82 5.5 -148.5t17.5 -119.5
l408 766q-53 33 -132 33q-70 0 -125 -29t-94 -91.5t-59.5 -164t-20.5 -246.5zM612 236q51 -25 123 -25q74 0 129.5 27.5t93 89t56 161t18.5 242.5q0 76 -5 140.5t-15 117.5z" />
    <glyph glyph-name="Ugrave" unicode="&#xd9;" horiz-adv-x="1456" 
d="M143 610v867h330v-844q0 -115 13.5 -195t44 -131t79.5 -73.5t121 -22.5q150 0 207 103.5t57 301.5v861h318v-854q0 -145 -29 -266t-96.5 -208.5t-181 -136.5t-283.5 -49q-168 0 -279.5 41t-178 122t-94.5 203t-28 281zM420 1835l176 201l354 -346l-114 -140z" />
    <glyph glyph-name="Uacute" unicode="&#xda;" horiz-adv-x="1456" 
d="M143 610v867h330v-844q0 -115 13.5 -195t44 -131t79.5 -73.5t121 -22.5q150 0 207 103.5t57 301.5v861h318v-854q0 -145 -29 -266t-96.5 -208.5t-181 -136.5t-283.5 -49q-168 0 -279.5 41t-178 122t-94.5 203t-28 281zM572 1690l354 346l176 -201l-416 -285z" />
    <glyph glyph-name="Ucircumflex" unicode="&#xdb;" horiz-adv-x="1456" 
d="M143 610v867h330v-844q0 -115 13.5 -195t44 -131t79.5 -73.5t121 -22.5q150 0 207 103.5t57 301.5v861h318v-854q0 -145 -29 -266t-96.5 -208.5t-181 -136.5t-283.5 -49q-168 0 -279.5 41t-178 122t-94.5 203t-28 281zM385 1669l219 281h244l219 -281l-133 -110l-209 192
l-207 -192z" />
    <glyph glyph-name="Udieresis" unicode="&#xdc;" horiz-adv-x="1456" 
d="M143 610v867h330v-844q0 -115 13.5 -195t44 -131t79.5 -73.5t121 -22.5q150 0 207 103.5t57 301.5v861h318v-854q0 -145 -29 -266t-96.5 -208.5t-181 -136.5t-283.5 -49q-168 0 -279.5 41t-178 122t-94.5 203t-28 281zM358 1751q0 72 40 119t118 47t119 -47t41 -119
t-41 -117t-119 -45t-118 45t-40 117zM831 1751q0 72 40 119t118 47q80 0 120 -47t40 -119t-40 -117t-120 -45q-78 0 -118 45t-40 117z" />
    <glyph glyph-name="Yacute" unicode="&#xdd;" horiz-adv-x="1206" 
d="M20 1452l326 45l215 -647q10 -31 21.5 -46.5t31.5 -15.5q16 0 27.5 10.5t28.5 51.5l233 647l293 -41l-287 -731q-20 -53 -55 -103.5t-88 -72.5v-549h-330v549q-66 16 -99.5 64.5t-62.5 125.5zM434 1690l354 346l176 -201l-416 -285z" />
    <glyph glyph-name="Thorn" unicode="&#xde;" horiz-adv-x="1230" 
d="M133 0v1477h330v-199h139q127 0 230.5 -18.5t176 -69.5t111.5 -141.5t39 -231.5q0 -131 -42 -221t-115.5 -145.5t-176 -80t-223.5 -24.5h-139v-346h-330zM463 592h131q111 0 164 58.5t53 166.5q0 115 -46 170t-171 55h-131v-450z" />
    <glyph glyph-name="germandbls" unicode="&#xdf;" horiz-adv-x="1318" 
d="M133 0v1028q0 109 27.5 197t88 149.5t156 95t232.5 33.5q240 0 346.5 -77.5t106.5 -200.5q0 -82 -31 -136.5t-69 -96.5t-68.5 -81t-30.5 -90q0 -37 25.5 -62.5t64.5 -51t83 -55t83 -72.5t64.5 -105.5t25.5 -152.5q0 -74 -23.5 -139.5t-75 -115t-130 -77t-191.5 -27.5
q-39 0 -78 7t-74.5 17.5t-64.5 21.5t-47 22l74 188q41 -18 76.5 -32.5t82.5 -14.5q51 0 83 11.5t50.5 30.5t24.5 46t6 55q0 51 -24.5 83t-62.5 58.5t-81 51t-80.5 59.5t-62.5 84t-25 125q0 68 29 112t63.5 82t63.5 79t29 104q0 137 -162 137q-61 0 -98 -17.5t-57.5 -53
t-28 -90t-7.5 -125.5v-1004h-313z" />
    <glyph glyph-name="agrave" unicode="&#xe0;" horiz-adv-x="1062" 
d="M72 297q0 188 113.5 267t342.5 79h131v39q0 84 -34.5 130t-122.5 46q-92 0 -165 -16.5t-138 -44.5l-80 198q86 41 201.5 64.5t218.5 23.5q117 0 195.5 -23.5t126.5 -76.5t68.5 -137t20.5 -207v-416l68 -143l-240 -117l-92 135q-78 -68 -146.5 -101.5t-148.5 -33.5
q-152 0 -235.5 88t-83.5 246zM256 1530l213 151l243 -393l-141 -102zM365 326q0 -78 34 -108t97 -30q41 0 88 22.5t75 51.5v205h-131q-78 0 -120.5 -26.5t-42.5 -114.5z" />
    <glyph glyph-name="aacute" unicode="&#xe1;" horiz-adv-x="1062" 
d="M72 297q0 188 113.5 267t342.5 79h131v39q0 84 -34.5 130t-122.5 46q-92 0 -165 -16.5t-138 -44.5l-80 198q86 41 201.5 64.5t218.5 23.5q117 0 195.5 -23.5t126.5 -76.5t68.5 -137t20.5 -207v-416l68 -143l-240 -117l-92 135q-78 -68 -146.5 -101.5t-148.5 -33.5
q-152 0 -235.5 88t-83.5 246zM365 326q0 -78 34 -108t97 -30q41 0 88 22.5t75 51.5v205h-131q-78 0 -120.5 -26.5t-42.5 -114.5zM367 1288l243 393l213 -151l-315 -344z" />
    <glyph glyph-name="acircumflex" unicode="&#xe2;" horiz-adv-x="1062" 
d="M72 297q0 188 113.5 267t342.5 79h131v39q0 84 -34.5 130t-122.5 46q-92 0 -165 -16.5t-138 -44.5l-80 198q86 41 201.5 64.5t218.5 23.5q117 0 195.5 -23.5t126.5 -76.5t68.5 -137t20.5 -207v-416l68 -143l-240 -117l-92 135q-78 -68 -146.5 -101.5t-148.5 -33.5
q-152 0 -235.5 88t-83.5 246zM182 1268l241 362h215l242 -362l-141 -90l-209 235l-207 -235zM365 326q0 -78 34 -108t97 -30q41 0 88 22.5t75 51.5v205h-131q-78 0 -120.5 -26.5t-42.5 -114.5z" />
    <glyph glyph-name="atilde" unicode="&#xe3;" horiz-adv-x="1062" 
d="M72 297q0 188 113.5 267t342.5 79h131v39q0 84 -34.5 130t-122.5 46q-92 0 -165 -16.5t-138 -44.5l-80 198q86 41 201.5 64.5t218.5 23.5q117 0 195.5 -23.5t126.5 -76.5t68.5 -137t20.5 -207v-416l68 -143l-240 -117l-92 135q-78 -68 -146.5 -101.5t-148.5 -33.5
q-152 0 -235.5 88t-83.5 246zM140 1227q0 143 57 233t162 90q47 0 94 -15t92 -38q35 -16 72 -30.5t65 -14.5q41 0 57.5 24.5t20.5 79.5h174q0 -143 -57.5 -233t-161.5 -90q-47 0 -94 15.5t-92 37.5q-35 16 -72 30.5t-65 14.5q-41 0 -57.5 -24.5t-20.5 -79.5h-174zM365 326
q0 -78 34 -108t97 -30q41 0 88 22.5t75 51.5v205h-131q-78 0 -120.5 -26.5t-42.5 -114.5z" />
    <glyph glyph-name="adieresis" unicode="&#xe4;" horiz-adv-x="1062" 
d="M72 297q0 188 113.5 267t342.5 79h131v39q0 84 -34.5 130t-122.5 46q-92 0 -165 -16.5t-138 -44.5l-80 198q86 41 201.5 64.5t218.5 23.5q117 0 195.5 -23.5t126.5 -76.5t68.5 -137t20.5 -207v-416l68 -143l-240 -117l-92 135q-78 -68 -146.5 -101.5t-148.5 -33.5
q-152 0 -235.5 88t-83.5 246zM143 1384q0 72 40 119t118 47t119 -47t41 -119t-41 -116.5t-119 -44.5t-118 45t-40 116zM365 326q0 -78 34 -108t97 -30q41 0 88 22.5t75 51.5v205h-131q-78 0 -120.5 -26.5t-42.5 -114.5zM616 1384q0 72 40 119t118 47q80 0 120 -47t40 -119
t-40 -116.5t-120 -44.5q-78 0 -118 45t-40 116z" />
    <glyph glyph-name="aring" unicode="&#xe5;" horiz-adv-x="1062" 
d="M72 297q0 188 113.5 267t342.5 79h131v39q0 84 -34.5 130t-122.5 46q-92 0 -165 -16.5t-138 -44.5l-80 198q86 41 201.5 64.5t218.5 23.5q117 0 195.5 -23.5t126.5 -76.5t68.5 -137t20.5 -207v-416l68 -143l-240 -117l-92 135q-78 -68 -146.5 -101.5t-148.5 -33.5
q-152 0 -235.5 88t-83.5 246zM267 1460q0 55 21.5 104.5t58 86.5t86 58.5t104.5 21.5t104.5 -21.5t86 -58.5t58 -86t21.5 -105q0 -55 -21.5 -104t-58 -86t-86 -58.5t-104.5 -21.5t-104.5 21.5t-86 58.5t-58 86t-21.5 104zM365 326q0 -78 34 -108t97 -30q41 0 88 22.5
t75 51.5v205h-131q-78 0 -120.5 -26.5t-42.5 -114.5zM422 1460q0 -47 33 -82t82 -35t82 35t33 82t-34 82t-81 35t-81 -35t-34 -82z" />
    <glyph glyph-name="ae" unicode="&#xe6;" horiz-adv-x="1673" 
d="M72 297q0 188 113.5 264t342.5 76h131v45q0 84 -34.5 130t-122.5 46q-92 0 -165 -16.5t-138 -44.5l-80 198q86 41 201.5 64.5t218.5 23.5q131 0 204.5 -30.5t110.5 -83.5q63 55 130 84.5t157 29.5q119 0 204 -37.5t140 -109.5t80.5 -176.5t25.5 -237.5l-59 -71h-574
q4 -135 67 -199t161 -64q86 0 152.5 13.5t134.5 48.5l92 -195q-96 -55 -197.5 -73.5t-222.5 -18.5q-76 0 -133.5 10.5t-102.5 30t-79.5 51t-65.5 74.5q-33 -31 -71 -61.5t-83 -53t-99 -37t-120 -14.5q-152 0 -235.5 88t-83.5 246zM365 326q0 -78 34 -108t97 -30q53 0 105 31
t81 60q-20 82 -23 172h-114q-35 0 -68 -3.5t-57.5 -15.5t-39.5 -37.5t-15 -68.5zM950 637h340q0 117 -40 169t-117 52q-41 0 -73 -9t-54.5 -33.5t-36 -67.5t-19.5 -111z" />
    <glyph glyph-name="ccedilla" unicode="&#xe7;" horiz-adv-x="978" 
d="M82 520q0 268 136 415.5t388 147.5q100 0 173 -18t145 -59l-93 -201q-41 23 -88 38t-125 15q-104 0 -163.5 -79t-59.5 -259q0 -174 56.5 -253t162.5 -79q72 0 125.5 14.5t106.5 41.5l92 -195q-70 -41 -146.5 -60.5t-164.5 -23.5l-17 -69q37 -4 72 -15.5t62.5 -32
t45 -52.5t17.5 -77q0 -92 -62.5 -155.5t-209.5 -63.5q-29 0 -64 5.5t-69.5 14.5t-68.5 22.5t-59 27.5l68 135q39 -23 75 -37t83 -14q92 0 92 63q0 49 -44 61.5t-122 12.5l47 178q-213 27 -302 166t-89 385z" />
    <glyph glyph-name="egrave" unicode="&#xe8;" horiz-adv-x="1110" 
d="M82 520q0 125 31.5 228.5t93 178t155 115.5t216.5 41q119 0 203.5 -38.5t140 -112.5t81 -180.5t25.5 -239.5l-80 -88h-553q14 -127 72 -181.5t156 -54.5q86 0 152.5 13.5t133.5 48.5l92 -195q-96 -55 -197.5 -73.5t-221.5 -18.5q-268 0 -384 143.5t-116 413.5zM314 1530
l213 151l243 -393l-141 -102zM395 627h340q0 231 -157 231q-82 0 -127 -48t-56 -183z" />
    <glyph glyph-name="eacute" unicode="&#xe9;" horiz-adv-x="1110" 
d="M82 520q0 125 31.5 228.5t93 178t155 115.5t216.5 41q119 0 203.5 -38.5t140 -112.5t81 -180.5t25.5 -239.5l-80 -88h-553q14 -127 72 -181.5t156 -54.5q86 0 152.5 13.5t133.5 48.5l92 -195q-96 -55 -197.5 -73.5t-221.5 -18.5q-268 0 -384 143.5t-116 413.5zM395 627
h340q0 231 -157 231q-82 0 -127 -48t-56 -183zM404 1288l243 393l213 -151l-315 -344z" />
    <glyph glyph-name="ecircumflex" unicode="&#xea;" horiz-adv-x="1110" 
d="M82 520q0 125 31.5 228.5t93 178t155 115.5t216.5 41q119 0 203.5 -38.5t140 -112.5t81 -180.5t25.5 -239.5l-80 -88h-553q14 -127 72 -181.5t156 -54.5q86 0 152.5 13.5t133.5 48.5l92 -195q-96 -55 -197.5 -73.5t-221.5 -18.5q-268 0 -384 143.5t-116 413.5zM221 1268
l241 362h215l242 -362l-141 -90l-209 235l-207 -235zM395 627h340q0 231 -157 231q-82 0 -127 -48t-56 -183z" />
    <glyph glyph-name="edieresis" unicode="&#xeb;" horiz-adv-x="1110" 
d="M82 520q0 125 31.5 228.5t93 178t155 115.5t216.5 41q119 0 203.5 -38.5t140 -112.5t81 -180.5t25.5 -239.5l-80 -88h-553q14 -127 72 -181.5t156 -54.5q86 0 152.5 13.5t133.5 48.5l92 -195q-96 -55 -197.5 -73.5t-221.5 -18.5q-268 0 -384 143.5t-116 413.5zM180 1384
q0 72 40 119t118 47t119 -47t41 -119t-41 -116.5t-119 -44.5t-118 45t-40 116zM395 627h340q0 231 -157 231q-82 0 -127 -48t-56 -183zM653 1384q0 72 40 119t118 47q80 0 120 -47t40 -119t-40 -116.5t-120 -44.5q-78 0 -118 45t-40 116z" />
    <glyph glyph-name="igrave" unicode="&#xec;" horiz-adv-x="600" 
d="M4 1530l213 151l243 -393l-141 -102zM25 838v209h442v-1047h-313v838h-129z" />
    <glyph glyph-name="iacute" unicode="&#xed;" horiz-adv-x="600" 
d="M25 838v209h442v-1047h-313v838h-129zM109 1288l243 393l213 -151l-315 -344z" />
    <glyph glyph-name="icircumflex" unicode="&#xee;" horiz-adv-x="600" 
d="M-88 1268l241 362h215l242 -362l-141 -90l-209 235l-207 -235zM25 838v209h442v-1047h-313v838h-129z" />
    <glyph glyph-name="idieresis" unicode="&#xef;" horiz-adv-x="600" 
d="M-113 1384q0 72 40 119t118 47t119 -47t41 -119t-41 -116.5t-119 -44.5t-118 45t-40 116zM25 838v209h442v-1047h-313v838h-129zM360 1384q0 72 40 119t118 47q80 0 120 -47t40 -119t-40 -116.5t-120 -44.5q-78 0 -118 45t-40 116z" />
    <glyph glyph-name="eth" unicode="&#xf0;" 
d="M109 459q0 106 29.5 193t85 149.5t133 96.5t175.5 34q74 0 132.5 -19.5t109.5 -48.5q-16 96 -50 166t-85 121l-160 -119l-110 137l114 86q-84 37 -190 60l84 211q182 -39 317 -115l180 135l113 -135l-139 -104q145 -125 208.5 -296t63.5 -372q0 -324 -118.5 -500
t-380.5 -176q-256 0 -384 126t-128 370zM444 459q0 -61 6.5 -111.5t24 -85.5t49 -54.5t80.5 -19.5q57 0 91 31t52.5 82t23.5 113.5t5 128.5v52t-2 50q-23 16 -60.5 39t-103.5 23q-74 0 -120 -54.5t-46 -193.5z" />
    <glyph glyph-name="ntilde" unicode="&#xf1;" horiz-adv-x="1212" 
d="M72 973l239 114l107 -149q84 76 157.5 110.5t165.5 34.5q109 0 176.5 -31.5t106.5 -90t52.5 -138.5t13.5 -174v-649h-314v604q0 121 -28.5 174t-120.5 53q-106 0 -181 -98v-733h-313v817zM232 1227q0 143 57 233t162 90q47 0 94 -15t92 -38q35 -16 72 -30.5t65 -14.5
q41 0 57.5 24.5t20.5 79.5h174q0 -143 -57.5 -233t-161.5 -90q-47 0 -94 15.5t-92 37.5q-35 16 -72 30.5t-65 14.5q-41 0 -57.5 -24.5t-20.5 -79.5h-174z" />
    <glyph glyph-name="ograve" unicode="&#xf2;" horiz-adv-x="1165" 
d="M82 520q0 129 32.5 233.5t96 178.5t159 112.5t220.5 38.5q254 0 373.5 -143t119.5 -412q0 -131 -30.5 -235.5t-94 -178t-160 -112.5t-225.5 -39q-137 0 -230 40t-151.5 113.5t-84 176t-25.5 227.5zM334 1530l213 151l243 -393l-141 -102zM395 520q0 -174 45.5 -253
t143.5 -79q94 0 139 76t45 258q0 176 -40 256t-138 80q-96 0 -145.5 -76.5t-49.5 -261.5z" />
    <glyph glyph-name="oacute" unicode="&#xf3;" horiz-adv-x="1165" 
d="M82 520q0 129 32.5 233.5t96 178.5t159 112.5t220.5 38.5q254 0 373.5 -143t119.5 -412q0 -131 -30.5 -235.5t-94 -178t-160 -112.5t-225.5 -39q-137 0 -230 40t-151.5 113.5t-84 176t-25.5 227.5zM395 520q0 -174 45.5 -253t143.5 -79q94 0 139 76t45 258q0 176 -40 256
t-138 80q-96 0 -145.5 -76.5t-49.5 -261.5zM416 1288l243 393l213 -151l-315 -344z" />
    <glyph glyph-name="ocircumflex" unicode="&#xf4;" horiz-adv-x="1165" 
d="M82 520q0 129 32.5 233.5t96 178.5t159 112.5t220.5 38.5q254 0 373.5 -143t119.5 -412q0 -131 -30.5 -235.5t-94 -178t-160 -112.5t-225.5 -39q-137 0 -230 40t-151.5 113.5t-84 176t-25.5 227.5zM242 1268l241 362h215l242 -362l-141 -90l-209 235l-207 -235zM395 520
q0 -174 45.5 -253t143.5 -79q94 0 139 76t45 258q0 176 -40 256t-138 80q-96 0 -145.5 -76.5t-49.5 -261.5z" />
    <glyph glyph-name="otilde" unicode="&#xf5;" horiz-adv-x="1165" 
d="M82 520q0 129 32.5 233.5t96 178.5t159 112.5t220.5 38.5q254 0 373.5 -143t119.5 -412q0 -131 -30.5 -235.5t-94 -178t-160 -112.5t-225.5 -39q-137 0 -230 40t-151.5 113.5t-84 176t-25.5 227.5zM193 1227q0 143 57 233t162 90q47 0 94 -15t92 -38q35 -16 72 -30.5
t65 -14.5q41 0 57.5 24.5t20.5 79.5h174q0 -143 -57.5 -233t-161.5 -90q-47 0 -94 15.5t-92 37.5q-35 16 -72 30.5t-65 14.5q-41 0 -57.5 -24.5t-20.5 -79.5h-174zM395 520q0 -174 45.5 -253t143.5 -79q94 0 139 76t45 258q0 176 -40 256t-138 80q-96 0 -145.5 -76.5
t-49.5 -261.5z" />
    <glyph glyph-name="odieresis" unicode="&#xf6;" horiz-adv-x="1165" 
d="M82 520q0 129 32.5 233.5t96 178.5t159 112.5t220.5 38.5q254 0 373.5 -143t119.5 -412q0 -131 -30.5 -235.5t-94 -178t-160 -112.5t-225.5 -39q-137 0 -230 40t-151.5 113.5t-84 176t-25.5 227.5zM192 1384q0 72 40 119t118 47t119 -47t41 -119t-41 -116.5t-119 -44.5
t-118 45t-40 116zM395 520q0 -174 45.5 -253t143.5 -79q94 0 139 76t45 258q0 176 -40 256t-138 80q-96 0 -145.5 -76.5t-49.5 -261.5zM665 1384q0 72 40 119t118 47q80 0 120 -47t40 -119t-40 -116.5t-120 -44.5q-78 0 -118 45t-40 116z" />
    <glyph glyph-name="divide" unicode="&#xf7;" 
d="M137 573v246h942v-246h-942zM455 319q0 66 38.5 112t112.5 46q76 0 115 -46t39 -112q0 -68 -39 -111.5t-115 -43.5q-74 0 -112.5 44t-38.5 111zM455 1071q0 66 38.5 112t112.5 46q76 0 115 -46t39 -112q0 -68 -39 -112t-115 -44q-74 0 -112.5 44.5t-38.5 111.5z" />
    <glyph glyph-name="oslash" unicode="&#xf8;" horiz-adv-x="1165" 
d="M82 -213l154 281q-84 74 -119 189.5t-35 262.5q0 129 32.5 233.5t96 178.5t159 112.5t220.5 38.5q109 0 188 -26l86 155h203l-133 -243q150 -137 149 -441q0 -131 -30.5 -235.5t-94 -178t-160 -112.5t-225.5 -39q-100 0 -180 23l-108 -199h-203zM395 520q0 -41 2 -76.5
t9 -66.5l256 467q-16 6 -34 10t-38 4q-96 0 -145.5 -77t-49.5 -261zM512 201q31 -13 72 -13q94 0 139 76t45 258q0 74 -6 133z" />
    <glyph glyph-name="ugrave" unicode="&#xf9;" horiz-adv-x="1196" 
d="M123 360v687h313v-629q0 -117 31 -162t115 -45q49 0 93 18.5t68 46.5v771h314v-822l67 -145l-252 -123l-94 129q-76 -68 -149.5 -95.5t-147.5 -27.5q-195 0 -276.5 100.5t-81.5 296.5zM322 1530l213 151l243 -393l-141 -102z" />
    <glyph glyph-name="uacute" unicode="&#xfa;" horiz-adv-x="1196" 
d="M123 360v687h313v-629q0 -117 31 -162t115 -45q49 0 93 18.5t68 46.5v771h314v-822l67 -145l-252 -123l-94 129q-76 -68 -149.5 -95.5t-147.5 -27.5q-195 0 -276.5 100.5t-81.5 296.5zM441 1288l243 393l213 -151l-315 -344z" />
    <glyph glyph-name="ucircumflex" unicode="&#xfb;" horiz-adv-x="1196" 
d="M123 360v687h313v-629q0 -117 31 -162t115 -45q49 0 93 18.5t68 46.5v771h314v-822l67 -145l-252 -123l-94 129q-76 -68 -149.5 -95.5t-147.5 -27.5q-195 0 -276.5 100.5t-81.5 296.5zM240 1268l241 362h215l242 -362l-141 -90l-209 235l-207 -235z" />
    <glyph glyph-name="udieresis" unicode="&#xfc;" horiz-adv-x="1196" 
d="M123 360v687h313v-629q0 -117 31 -162t115 -45q49 0 93 18.5t68 46.5v771h314v-822l67 -145l-252 -123l-94 129q-76 -68 -149.5 -95.5t-147.5 -27.5q-195 0 -276.5 100.5t-81.5 296.5zM202 1384q0 72 40 119t118 47t119 -47t41 -119t-41 -116.5t-119 -44.5t-118 45
t-40 116zM675 1384q0 72 40 119t118 47q80 0 120 -47t40 -119t-40 -116.5t-120 -44.5q-78 0 -118 45t-40 116z" />
    <glyph glyph-name="yacute" unicode="&#xfd;" horiz-adv-x="1114" 
d="M20 1022l326 55l170 -760q8 -35 19.5 -56t44.5 -21h34l179 837l301 -59l-285 -1114q-18 -72 -46 -137.5t-75 -116.5t-123 -81t-188 -30q-92 0 -171 14.5t-169 59.5l94 211q125 -59 221 -60q88 0 132 47.5t67 145.5l12 55h-49q-70 0 -117 14.5t-78.5 43t-51 68.5t-34.5 93
zM465 1288l243 393l213 -151l-315 -344z" />
    <glyph glyph-name="thorn" unicode="&#xfe;" horiz-adv-x="1210" 
d="M123 -446v1953h313v-542q53 51 124 84.5t153 33.5q205 0 305 -146t100 -417q0 -129 -34.5 -232.5t-100 -175t-160 -110.5t-215.5 -39q-41 0 -87 7t-85 18v-434h-313zM436 217q29 -12 62.5 -20.5t74.5 -8.5q111 0 170.5 84t59.5 250q0 76 -7.5 138.5t-27.5 106.5t-55 67.5
t-92 23.5q-53 0 -101.5 -32.5t-83.5 -80.5v-528z" />
    <glyph glyph-name="ydieresis" unicode="&#xff;" horiz-adv-x="1114" 
d="M20 1022l326 55l170 -760q8 -35 19.5 -56t44.5 -21h34l179 837l301 -59l-285 -1114q-18 -72 -46 -137.5t-75 -116.5t-123 -81t-188 -30q-92 0 -171 14.5t-169 59.5l94 211q125 -59 221 -60q88 0 132 47.5t67 145.5l12 55h-49q-70 0 -117 14.5t-78.5 43t-51 68.5t-34.5 93
zM178 1384q0 72 40 119t118 47t119 -47t41 -119t-41 -116.5t-119 -44.5t-118 45t-40 116zM651 1384q0 72 40 119t118 47q80 0 120 -47t40 -119t-40 -116.5t-120 -44.5q-78 0 -118 45t-40 116z" />
    <glyph glyph-name="OE" unicode="&#x152;" horiz-adv-x="2050" 
d="M102 729q0 377 162 577.5t479 200.5q86 0 159 -28.5t130 -77.5v76h957v-256h-627v-338h465v-262h-465v-365h647v-256h-977v86q-72 -61 -153.5 -92t-159.5 -31q-326 0 -471.5 196.5t-145.5 569.5zM446 729q0 -274 69.5 -396t219.5 -122q100 0 175 28.5t122 104.5v764
q-41 80 -115.5 116t-171.5 36q-70 0 -125 -29t-94 -91.5t-59.5 -164t-20.5 -246.5z" />
    <glyph glyph-name="oe" unicode="&#x153;" horiz-adv-x="1777" 
d="M80 520q0 268 126 415.5t378 147.5q131 0 213 -43t123 -96q45 53 122.5 96t202.5 43q119 0 204 -38.5t140.5 -112.5t81 -180.5t25.5 -239.5l-80 -88h-553q14 -127 71.5 -181.5t155.5 -54.5q86 0 152.5 13.5t134.5 48.5l92 -195q-96 -55 -197.5 -73.5t-222.5 -18.5
q-70 0 -123 11.5t-93 30t-69.5 41t-52.5 46.5q-25 -25 -53.5 -47t-66 -40.5t-91 -30t-129.5 -11.5q-133 0 -226 38t-151.5 109.5t-86 175t-27.5 234.5zM393 520q0 -174 45.5 -253t143.5 -79q94 0 139 76t45 258q0 176 -40 256t-138 80q-96 0 -145.5 -76.5t-49.5 -261.5z
M1063 627h340q0 231 -158 231q-82 0 -127 -48t-55 -183z" />
    <glyph glyph-name="Ydieresis" unicode="&#x178;" horiz-adv-x="1206" 
d="M20 1452l326 45l215 -647q10 -31 21.5 -46.5t31.5 -15.5q16 0 27.5 10.5t28.5 51.5l233 647l293 -41l-287 -731q-20 -53 -55 -103.5t-88 -72.5v-549h-330v549q-66 16 -99.5 64.5t-62.5 125.5zM221 1751q0 72 40 119t118 47t119 -47t41 -119t-41 -117t-119 -45t-118 45
t-40 117zM694 1751q0 72 40 119t118 47q80 0 120 -47t40 -119t-40 -117t-120 -45q-78 0 -118 45t-40 117z" />
    <glyph glyph-name="circumflex" unicode="&#x2c6;" horiz-adv-x="1024" 
d="M162 1268l241 362h215l242 -362l-141 -90l-209 235l-207 -235z" />
    <glyph glyph-name="tilde" unicode="&#x2dc;" horiz-adv-x="1024" 
d="M117 1227q0 143 57 233t162 90q47 0 94 -15t92 -38q35 -16 72 -30.5t65 -14.5q41 0 57.5 24.5t20.5 79.5h174q0 -143 -57.5 -233t-161.5 -90q-47 0 -94 15.5t-92 37.5q-35 16 -72 30.5t-65 14.5q-41 0 -57.5 -24.5t-20.5 -79.5h-174z" />
    <glyph glyph-name="uni2000" unicode="&#x2000;" horiz-adv-x="1048" 
 />
    <glyph glyph-name="uni2001" unicode="&#x2001;" horiz-adv-x="2097" 
 />
    <glyph glyph-name="uni2002" unicode="&#x2002;" horiz-adv-x="1048" 
 />
    <glyph glyph-name="uni2003" unicode="&#x2003;" horiz-adv-x="2097" 
 />
    <glyph glyph-name="uni2004" unicode="&#x2004;" horiz-adv-x="699" 
 />
    <glyph glyph-name="uni2005" unicode="&#x2005;" horiz-adv-x="524" 
 />
    <glyph glyph-name="uni2006" unicode="&#x2006;" horiz-adv-x="349" 
 />
    <glyph glyph-name="uni2007" unicode="&#x2007;" horiz-adv-x="349" 
 />
    <glyph glyph-name="uni2008" unicode="&#x2008;" horiz-adv-x="262" 
 />
    <glyph glyph-name="uni2009" unicode="&#x2009;" horiz-adv-x="419" 
 />
    <glyph glyph-name="uni200A" unicode="&#x200a;" horiz-adv-x="116" 
 />
    <glyph glyph-name="uni2010" unicode="&#x2010;" horiz-adv-x="921" 
d="M133 516v254h655v-254h-655z" />
    <glyph glyph-name="uni2011" unicode="&#x2011;" horiz-adv-x="921" 
d="M133 516v254h655v-254h-655z" />
    <glyph glyph-name="figuredash" unicode="&#x2012;" horiz-adv-x="921" 
d="M133 516v254h655v-254h-655z" />
    <glyph glyph-name="endash" unicode="&#x2013;" horiz-adv-x="1024" 
d="M0 487v263h1024v-263h-1024z" />
    <glyph glyph-name="emdash" unicode="&#x2014;" horiz-adv-x="2048" 
d="M0 487v263h2048v-263h-2048z" />
    <glyph glyph-name="quoteleft" unicode="&#x2018;" horiz-adv-x="520" 
d="M100 1116q0 23 3 43.5t12.5 48t27 66.5t47.5 100l70 144l146 -45l-72 -216q41 -12 71.5 -44.5t30.5 -88.5q0 -72 -43 -120t-129 -48q-82 0 -123 47.5t-41 112.5z" />
    <glyph glyph-name="quoteright" unicode="&#x2019;" horiz-adv-x="520" 
d="M100 1350q0 72 43 120t129 48q82 0 123 -47.5t41 -112.5q0 -23 -3 -43.5t-12 -48t-26.5 -66.5t-48.5 -100l-70 -144l-145 45l72 216q-41 12 -72 44.5t-31 88.5z" />
    <glyph glyph-name="quotesinglbase" unicode="&#x201a;" horiz-adv-x="585" 
d="M127 105q0 72 43 120t129 48q82 0 123 -47.5t41 -112.5q0 -23 -3 -43.5t-12 -48t-26.5 -66.5t-48.5 -100l-70 -144l-145 45l72 216q-41 12 -72 44.5t-31 88.5z" />
    <glyph glyph-name="quotedblleft" unicode="&#x201c;" horiz-adv-x="950" 
d="M100 1116q0 23 3 43.5t12.5 48t27 66.5t47.5 100l70 144l146 -45l-72 -216q41 -12 71.5 -44.5t30.5 -88.5q0 -72 -43 -120t-129 -48q-82 0 -123 47.5t-41 112.5zM530 1116q0 23 3 43.5t12.5 48t27 66.5t47.5 100l70 144l146 -45l-72 -216q41 -12 71.5 -44.5t30.5 -88.5
q0 -72 -43 -120t-129 -48q-82 0 -123 47.5t-41 112.5z" />
    <glyph glyph-name="quotedblright" unicode="&#x201d;" horiz-adv-x="950" 
d="M100 1350q0 72 43 120t129 48q82 0 123 -47.5t41 -112.5q0 -23 -3 -43.5t-12 -48t-26.5 -66.5t-48.5 -100l-70 -144l-145 45l72 216q-41 12 -72 44.5t-31 88.5zM530 1350q0 72 43 120t129 48q82 0 123 -47.5t41 -112.5q0 -23 -3 -43.5t-12 -48t-26.5 -66.5t-48.5 -100
l-70 -144l-145 45l72 216q-41 12 -72 44.5t-31 88.5z" />
    <glyph glyph-name="quotedblbase" unicode="&#x201e;" horiz-adv-x="1015" 
d="M127 105q0 72 43 120t129 48q82 0 123 -47.5t41 -112.5q0 -23 -3 -43.5t-12 -48t-26.5 -66.5t-48.5 -100l-70 -144l-145 45l72 216q-41 12 -72 44.5t-31 88.5zM557 105q0 72 43 120t129 48q82 0 123 -47.5t41 -112.5q0 -23 -3 -43.5t-12 -48t-26.5 -66.5t-48.5 -100
l-70 -144l-145 45l72 216q-41 12 -72 44.5t-31 88.5z" />
    <glyph glyph-name="bullet" unicode="&#x2022;" horiz-adv-x="1024" 
d="M240 678q0 127 66.5 205t207.5 78q139 0 203.5 -78t64.5 -205t-64.5 -205t-203.5 -78q-141 0 -207.5 78t-66.5 205z" />
    <glyph glyph-name="ellipsis" unicode="&#x2026;" horiz-adv-x="1832" 
d="M96 156q0 84 46 140t139 56q94 0 140 -56t46 -140t-46 -138.5t-140 -54.5q-92 0 -138.5 54.5t-46.5 138.5zM731 156q0 84 46 140t139 56q94 0 140 -56t46 -140t-46 -138.5t-140 -54.5q-92 0 -138.5 54.5t-46.5 138.5zM1366 156q0 84 46 140t139 56q94 0 140 -56t46 -140
t-46 -138.5t-140 -54.5q-92 0 -138.5 54.5t-46.5 138.5z" />
    <glyph glyph-name="uni202F" unicode="&#x202f;" horiz-adv-x="419" 
 />
    <glyph glyph-name="guilsinglleft" unicode="&#x2039;" horiz-adv-x="735" 
d="M113 561q0 61 28.5 105.5t71.5 78.5l264 216l180 -87l-223 -221q-27 -27 -41 -43t-14 -39t15.5 -39t56.5 -53l213 -198l-172 -93l-252 179q-66 47 -96.5 88t-30.5 106z" />
    <glyph glyph-name="guilsinglright" unicode="&#x203a;" horiz-adv-x="735" 
d="M72 281l213 198q41 37 56 53.5t15 38.5q0 23 -14 39.5t-41 42.5l-223 221l180 87l264 -216q43 -35 72 -76.5t29 -103.5q0 -66 -31 -108.5t-96 -89.5l-252 -179z" />
    <glyph glyph-name="uni205F" unicode="&#x205f;" horiz-adv-x="524" 
 />
    <glyph glyph-name="Euro" unicode="&#x20ac;" 
d="M61 438v213h832v-213h-332q31 -113 89.5 -163t154.5 -50q55 0 98 6.5t80 18.5t72 30.5t71 43.5l115 -213q-55 -39 -106.5 -66t-104.5 -42t-110.5 -22.5t-126.5 -7.5q-250 0 -385.5 121t-178.5 344h-168zM61 762v213h166q51 244 199.5 373t394.5 129q68 0 121 -9.5t99 -26
t86 -39t81 -48.5l-104 -207q-72 51 -138.5 69.5t-134.5 18.5q-111 0 -180 -60.5t-98 -199.5h340v-213h-832z" />
    <glyph glyph-name="trademark" unicode="&#x2122;" horiz-adv-x="1918" 
d="M68 1298v179h700v-179h-231v-661h-238v661h-231zM854 637l49 840h209l170 -387q10 -20 21 -21q6 0 10 3t10 18l168 387h203l51 -840h-219l-23 465l-73 -156q-25 -51 -52 -72.5t-80 -21.5t-82.5 23.5t-52.5 70.5l-76 168l-18 -477h-215z" />
    <glyph glyph-name="uniE000" unicode="&#xe000;" horiz-adv-x="1075" 
d="M0 0v1075h1075v-1075h-1075z" />
  </font>
</defs>
</svg>
